<?xml version="1.0" encoding="utf-8" standalone="no"?>
<!DOCTYPE svg PUBLIC "-//W3C//DTD SVG 1.1//EN"
  "http://www.w3.org/Graphics/SVG/1.1/DTD/svg11.dtd">
<svg xmlns:xlink="http://www.w3.org/1999/xlink" width="1833.403125pt" height="1057.794375pt" viewBox="0 0 1833.403125 1057.794375" xmlns="http://www.w3.org/2000/svg" version="1.1">
 <metadata>
  <rdf:RDF xmlns:dc="http://purl.org/dc/elements/1.1/" xmlns:cc="http://creativecommons.org/ns#" xmlns:rdf="http://www.w3.org/1999/02/22-rdf-syntax-ns#">
   <cc:Work>
    <dc:type rdf:resource="http://purl.org/dc/dcmitype/StillImage"/>
    <dc:date>2022-06-15T15:57:45.563224</dc:date>
    <dc:format>image/svg+xml</dc:format>
    <dc:creator>
     <cc:Agent>
      <dc:title>Matplotlib v3.5.2, https://matplotlib.org/</dc:title>
     </cc:Agent>
    </dc:creator>
   </cc:Work>
  </rdf:RDF>
 </metadata>
 <defs>
  <style type="text/css">*{stroke-linejoin: round; stroke-linecap: butt}</style>
 </defs>
 <g id="figure_1">
  <g id="patch_1">
   <path d="M 0 1057.794375 
L 1833.403125 1057.794375 
L 1833.403125 0 
L 0 0 
z
" style="fill: #ffffff"/>
  </g>
  <g id="axes_1">
   <g id="patch_2">
    <path d="M 40.603125 1020.238125 
L 1826.203125 1020.238125 
L 1826.203125 22.318125 
L 40.603125 22.318125 
z
" style="fill: #ffffff"/>
   </g>
   <g id="matplotlib.axis_1">
    <g id="xtick_1">
     <g id="line2d_1">
      <defs>
       <path id="m24153fd48d" d="M 0 0 
L 0 3.5 
" style="stroke: #000000; stroke-width: 0.8"/>
      </defs>
      <g>
       <use xlink:href="#m24153fd48d" x="121.766761" y="1020.238125" style="stroke: #000000; stroke-width: 0.8"/>
      </g>
     </g>
     <g id="text_1">
      <!-- 1 -->
      <g transform="translate(118.585511 1034.836563)scale(0.1 -0.1)">
       <defs>
        <path id="DejaVuSans-31" d="M 794 531 
L 1825 531 
L 1825 4091 
L 703 3866 
L 703 4441 
L 1819 4666 
L 2450 4666 
L 2450 531 
L 3481 531 
L 3481 0 
L 794 0 
L 794 531 
z
" transform="scale(0.015625)"/>
       </defs>
       <use xlink:href="#DejaVuSans-31"/>
      </g>
     </g>
    </g>
    <g id="xtick_2">
     <g id="line2d_2">
      <g>
       <use xlink:href="#m24153fd48d" x="174.130398" y="1020.238125" style="stroke: #000000; stroke-width: 0.8"/>
      </g>
     </g>
     <g id="text_2">
      <!-- 2 -->
      <g transform="translate(170.949148 1034.836563)scale(0.1 -0.1)">
       <defs>
        <path id="DejaVuSans-32" d="M 1228 531 
L 3431 531 
L 3431 0 
L 469 0 
L 469 531 
Q 828 903 1448 1529 
Q 2069 2156 2228 2338 
Q 2531 2678 2651 2914 
Q 2772 3150 2772 3378 
Q 2772 3750 2511 3984 
Q 2250 4219 1831 4219 
Q 1534 4219 1204 4116 
Q 875 4013 500 3803 
L 500 4441 
Q 881 4594 1212 4672 
Q 1544 4750 1819 4750 
Q 2544 4750 2975 4387 
Q 3406 4025 3406 3419 
Q 3406 3131 3298 2873 
Q 3191 2616 2906 2266 
Q 2828 2175 2409 1742 
Q 1991 1309 1228 531 
z
" transform="scale(0.015625)"/>
       </defs>
       <use xlink:href="#DejaVuSans-32"/>
      </g>
     </g>
    </g>
    <g id="xtick_3">
     <g id="line2d_3">
      <g>
       <use xlink:href="#m24153fd48d" x="226.494034" y="1020.238125" style="stroke: #000000; stroke-width: 0.8"/>
      </g>
     </g>
     <g id="text_3">
      <!-- 3 -->
      <g transform="translate(223.312784 1034.836563)scale(0.1 -0.1)">
       <defs>
        <path id="DejaVuSans-33" d="M 2597 2516 
Q 3050 2419 3304 2112 
Q 3559 1806 3559 1356 
Q 3559 666 3084 287 
Q 2609 -91 1734 -91 
Q 1441 -91 1130 -33 
Q 819 25 488 141 
L 488 750 
Q 750 597 1062 519 
Q 1375 441 1716 441 
Q 2309 441 2620 675 
Q 2931 909 2931 1356 
Q 2931 1769 2642 2001 
Q 2353 2234 1838 2234 
L 1294 2234 
L 1294 2753 
L 1863 2753 
Q 2328 2753 2575 2939 
Q 2822 3125 2822 3475 
Q 2822 3834 2567 4026 
Q 2313 4219 1838 4219 
Q 1578 4219 1281 4162 
Q 984 4106 628 3988 
L 628 4550 
Q 988 4650 1302 4700 
Q 1616 4750 1894 4750 
Q 2613 4750 3031 4423 
Q 3450 4097 3450 3541 
Q 3450 3153 3228 2886 
Q 3006 2619 2597 2516 
z
" transform="scale(0.015625)"/>
       </defs>
       <use xlink:href="#DejaVuSans-33"/>
      </g>
     </g>
    </g>
    <g id="xtick_4">
     <g id="line2d_4">
      <g>
       <use xlink:href="#m24153fd48d" x="278.85767" y="1020.238125" style="stroke: #000000; stroke-width: 0.8"/>
      </g>
     </g>
     <g id="text_4">
      <!-- 4 -->
      <g transform="translate(275.67642 1034.836563)scale(0.1 -0.1)">
       <defs>
        <path id="DejaVuSans-34" d="M 2419 4116 
L 825 1625 
L 2419 1625 
L 2419 4116 
z
M 2253 4666 
L 3047 4666 
L 3047 1625 
L 3713 1625 
L 3713 1100 
L 3047 1100 
L 3047 0 
L 2419 0 
L 2419 1100 
L 313 1100 
L 313 1709 
L 2253 4666 
z
" transform="scale(0.015625)"/>
       </defs>
       <use xlink:href="#DejaVuSans-34"/>
      </g>
     </g>
    </g>
    <g id="xtick_5">
     <g id="line2d_5">
      <g>
       <use xlink:href="#m24153fd48d" x="331.221307" y="1020.238125" style="stroke: #000000; stroke-width: 0.8"/>
      </g>
     </g>
     <g id="text_5">
      <!-- 5 -->
      <g transform="translate(328.040057 1034.836563)scale(0.1 -0.1)">
       <defs>
        <path id="DejaVuSans-35" d="M 691 4666 
L 3169 4666 
L 3169 4134 
L 1269 4134 
L 1269 2991 
Q 1406 3038 1543 3061 
Q 1681 3084 1819 3084 
Q 2600 3084 3056 2656 
Q 3513 2228 3513 1497 
Q 3513 744 3044 326 
Q 2575 -91 1722 -91 
Q 1428 -91 1123 -41 
Q 819 9 494 109 
L 494 744 
Q 775 591 1075 516 
Q 1375 441 1709 441 
Q 2250 441 2565 725 
Q 2881 1009 2881 1497 
Q 2881 1984 2565 2268 
Q 2250 2553 1709 2553 
Q 1456 2553 1204 2497 
Q 953 2441 691 2322 
L 691 4666 
z
" transform="scale(0.015625)"/>
       </defs>
       <use xlink:href="#DejaVuSans-35"/>
      </g>
     </g>
    </g>
    <g id="xtick_6">
     <g id="line2d_6">
      <g>
       <use xlink:href="#m24153fd48d" x="383.584943" y="1020.238125" style="stroke: #000000; stroke-width: 0.8"/>
      </g>
     </g>
     <g id="text_6">
      <!-- 6 -->
      <g transform="translate(380.403693 1034.836563)scale(0.1 -0.1)">
       <defs>
        <path id="DejaVuSans-36" d="M 2113 2584 
Q 1688 2584 1439 2293 
Q 1191 2003 1191 1497 
Q 1191 994 1439 701 
Q 1688 409 2113 409 
Q 2538 409 2786 701 
Q 3034 994 3034 1497 
Q 3034 2003 2786 2293 
Q 2538 2584 2113 2584 
z
M 3366 4563 
L 3366 3988 
Q 3128 4100 2886 4159 
Q 2644 4219 2406 4219 
Q 1781 4219 1451 3797 
Q 1122 3375 1075 2522 
Q 1259 2794 1537 2939 
Q 1816 3084 2150 3084 
Q 2853 3084 3261 2657 
Q 3669 2231 3669 1497 
Q 3669 778 3244 343 
Q 2819 -91 2113 -91 
Q 1303 -91 875 529 
Q 447 1150 447 2328 
Q 447 3434 972 4092 
Q 1497 4750 2381 4750 
Q 2619 4750 2861 4703 
Q 3103 4656 3366 4563 
z
" transform="scale(0.015625)"/>
       </defs>
       <use xlink:href="#DejaVuSans-36"/>
      </g>
     </g>
    </g>
    <g id="xtick_7">
     <g id="line2d_7">
      <g>
       <use xlink:href="#m24153fd48d" x="435.94858" y="1020.238125" style="stroke: #000000; stroke-width: 0.8"/>
      </g>
     </g>
     <g id="text_7">
      <!-- 7 -->
      <g transform="translate(432.76733 1034.836563)scale(0.1 -0.1)">
       <defs>
        <path id="DejaVuSans-37" d="M 525 4666 
L 3525 4666 
L 3525 4397 
L 1831 0 
L 1172 0 
L 2766 4134 
L 525 4134 
L 525 4666 
z
" transform="scale(0.015625)"/>
       </defs>
       <use xlink:href="#DejaVuSans-37"/>
      </g>
     </g>
    </g>
    <g id="xtick_8">
     <g id="line2d_8">
      <g>
       <use xlink:href="#m24153fd48d" x="488.312216" y="1020.238125" style="stroke: #000000; stroke-width: 0.8"/>
      </g>
     </g>
     <g id="text_8">
      <!-- 8 -->
      <g transform="translate(485.130966 1034.836563)scale(0.1 -0.1)">
       <defs>
        <path id="DejaVuSans-38" d="M 2034 2216 
Q 1584 2216 1326 1975 
Q 1069 1734 1069 1313 
Q 1069 891 1326 650 
Q 1584 409 2034 409 
Q 2484 409 2743 651 
Q 3003 894 3003 1313 
Q 3003 1734 2745 1975 
Q 2488 2216 2034 2216 
z
M 1403 2484 
Q 997 2584 770 2862 
Q 544 3141 544 3541 
Q 544 4100 942 4425 
Q 1341 4750 2034 4750 
Q 2731 4750 3128 4425 
Q 3525 4100 3525 3541 
Q 3525 3141 3298 2862 
Q 3072 2584 2669 2484 
Q 3125 2378 3379 2068 
Q 3634 1759 3634 1313 
Q 3634 634 3220 271 
Q 2806 -91 2034 -91 
Q 1263 -91 848 271 
Q 434 634 434 1313 
Q 434 1759 690 2068 
Q 947 2378 1403 2484 
z
M 1172 3481 
Q 1172 3119 1398 2916 
Q 1625 2713 2034 2713 
Q 2441 2713 2670 2916 
Q 2900 3119 2900 3481 
Q 2900 3844 2670 4047 
Q 2441 4250 2034 4250 
Q 1625 4250 1398 4047 
Q 1172 3844 1172 3481 
z
" transform="scale(0.015625)"/>
       </defs>
       <use xlink:href="#DejaVuSans-38"/>
      </g>
     </g>
    </g>
    <g id="xtick_9">
     <g id="line2d_9">
      <g>
       <use xlink:href="#m24153fd48d" x="540.675852" y="1020.238125" style="stroke: #000000; stroke-width: 0.8"/>
      </g>
     </g>
     <g id="text_9">
      <!-- 9 -->
      <g transform="translate(537.494602 1034.836563)scale(0.1 -0.1)">
       <defs>
        <path id="DejaVuSans-39" d="M 703 97 
L 703 672 
Q 941 559 1184 500 
Q 1428 441 1663 441 
Q 2288 441 2617 861 
Q 2947 1281 2994 2138 
Q 2813 1869 2534 1725 
Q 2256 1581 1919 1581 
Q 1219 1581 811 2004 
Q 403 2428 403 3163 
Q 403 3881 828 4315 
Q 1253 4750 1959 4750 
Q 2769 4750 3195 4129 
Q 3622 3509 3622 2328 
Q 3622 1225 3098 567 
Q 2575 -91 1691 -91 
Q 1453 -91 1209 -44 
Q 966 3 703 97 
z
M 1959 2075 
Q 2384 2075 2632 2365 
Q 2881 2656 2881 3163 
Q 2881 3666 2632 3958 
Q 2384 4250 1959 4250 
Q 1534 4250 1286 3958 
Q 1038 3666 1038 3163 
Q 1038 2656 1286 2365 
Q 1534 2075 1959 2075 
z
" transform="scale(0.015625)"/>
       </defs>
       <use xlink:href="#DejaVuSans-39"/>
      </g>
     </g>
    </g>
    <g id="xtick_10">
     <g id="line2d_10">
      <g>
       <use xlink:href="#m24153fd48d" x="593.039489" y="1020.238125" style="stroke: #000000; stroke-width: 0.8"/>
      </g>
     </g>
     <g id="text_10">
      <!-- 10 -->
      <g transform="translate(586.676989 1034.836563)scale(0.1 -0.1)">
       <defs>
        <path id="DejaVuSans-30" d="M 2034 4250 
Q 1547 4250 1301 3770 
Q 1056 3291 1056 2328 
Q 1056 1369 1301 889 
Q 1547 409 2034 409 
Q 2525 409 2770 889 
Q 3016 1369 3016 2328 
Q 3016 3291 2770 3770 
Q 2525 4250 2034 4250 
z
M 2034 4750 
Q 2819 4750 3233 4129 
Q 3647 3509 3647 2328 
Q 3647 1150 3233 529 
Q 2819 -91 2034 -91 
Q 1250 -91 836 529 
Q 422 1150 422 2328 
Q 422 3509 836 4129 
Q 1250 4750 2034 4750 
z
" transform="scale(0.015625)"/>
       </defs>
       <use xlink:href="#DejaVuSans-31"/>
       <use xlink:href="#DejaVuSans-30" x="63.623047"/>
      </g>
     </g>
    </g>
    <g id="xtick_11">
     <g id="line2d_11">
      <g>
       <use xlink:href="#m24153fd48d" x="645.403125" y="1020.238125" style="stroke: #000000; stroke-width: 0.8"/>
      </g>
     </g>
     <g id="text_11">
      <!-- 11 -->
      <g transform="translate(639.040625 1034.836563)scale(0.1 -0.1)">
       <use xlink:href="#DejaVuSans-31"/>
       <use xlink:href="#DejaVuSans-31" x="63.623047"/>
      </g>
     </g>
    </g>
    <g id="xtick_12">
     <g id="line2d_12">
      <g>
       <use xlink:href="#m24153fd48d" x="697.766761" y="1020.238125" style="stroke: #000000; stroke-width: 0.8"/>
      </g>
     </g>
     <g id="text_12">
      <!-- 12 -->
      <g transform="translate(691.404261 1034.836563)scale(0.1 -0.1)">
       <use xlink:href="#DejaVuSans-31"/>
       <use xlink:href="#DejaVuSans-32" x="63.623047"/>
      </g>
     </g>
    </g>
    <g id="xtick_13">
     <g id="line2d_13">
      <g>
       <use xlink:href="#m24153fd48d" x="750.130398" y="1020.238125" style="stroke: #000000; stroke-width: 0.8"/>
      </g>
     </g>
     <g id="text_13">
      <!-- 13 -->
      <g transform="translate(743.767898 1034.836563)scale(0.1 -0.1)">
       <use xlink:href="#DejaVuSans-31"/>
       <use xlink:href="#DejaVuSans-33" x="63.623047"/>
      </g>
     </g>
    </g>
    <g id="xtick_14">
     <g id="line2d_14">
      <g>
       <use xlink:href="#m24153fd48d" x="802.494034" y="1020.238125" style="stroke: #000000; stroke-width: 0.8"/>
      </g>
     </g>
     <g id="text_14">
      <!-- 14 -->
      <g transform="translate(796.131534 1034.836563)scale(0.1 -0.1)">
       <use xlink:href="#DejaVuSans-31"/>
       <use xlink:href="#DejaVuSans-34" x="63.623047"/>
      </g>
     </g>
    </g>
    <g id="xtick_15">
     <g id="line2d_15">
      <g>
       <use xlink:href="#m24153fd48d" x="854.85767" y="1020.238125" style="stroke: #000000; stroke-width: 0.8"/>
      </g>
     </g>
     <g id="text_15">
      <!-- 15 -->
      <g transform="translate(848.49517 1034.836563)scale(0.1 -0.1)">
       <use xlink:href="#DejaVuSans-31"/>
       <use xlink:href="#DejaVuSans-35" x="63.623047"/>
      </g>
     </g>
    </g>
    <g id="xtick_16">
     <g id="line2d_16">
      <g>
       <use xlink:href="#m24153fd48d" x="907.221307" y="1020.238125" style="stroke: #000000; stroke-width: 0.8"/>
      </g>
     </g>
     <g id="text_16">
      <!-- 16 -->
      <g transform="translate(900.858807 1034.836563)scale(0.1 -0.1)">
       <use xlink:href="#DejaVuSans-31"/>
       <use xlink:href="#DejaVuSans-36" x="63.623047"/>
      </g>
     </g>
    </g>
    <g id="xtick_17">
     <g id="line2d_17">
      <g>
       <use xlink:href="#m24153fd48d" x="959.584943" y="1020.238125" style="stroke: #000000; stroke-width: 0.8"/>
      </g>
     </g>
     <g id="text_17">
      <!-- 17 -->
      <g transform="translate(953.222443 1034.836563)scale(0.1 -0.1)">
       <use xlink:href="#DejaVuSans-31"/>
       <use xlink:href="#DejaVuSans-37" x="63.623047"/>
      </g>
     </g>
    </g>
    <g id="xtick_18">
     <g id="line2d_18">
      <g>
       <use xlink:href="#m24153fd48d" x="1011.94858" y="1020.238125" style="stroke: #000000; stroke-width: 0.8"/>
      </g>
     </g>
     <g id="text_18">
      <!-- 18 -->
      <g transform="translate(1005.58608 1034.836563)scale(0.1 -0.1)">
       <use xlink:href="#DejaVuSans-31"/>
       <use xlink:href="#DejaVuSans-38" x="63.623047"/>
      </g>
     </g>
    </g>
    <g id="xtick_19">
     <g id="line2d_19">
      <g>
       <use xlink:href="#m24153fd48d" x="1064.312216" y="1020.238125" style="stroke: #000000; stroke-width: 0.8"/>
      </g>
     </g>
     <g id="text_19">
      <!-- 19 -->
      <g transform="translate(1057.949716 1034.836563)scale(0.1 -0.1)">
       <use xlink:href="#DejaVuSans-31"/>
       <use xlink:href="#DejaVuSans-39" x="63.623047"/>
      </g>
     </g>
    </g>
    <g id="xtick_20">
     <g id="line2d_20">
      <g>
       <use xlink:href="#m24153fd48d" x="1116.675852" y="1020.238125" style="stroke: #000000; stroke-width: 0.8"/>
      </g>
     </g>
     <g id="text_20">
      <!-- 20 -->
      <g transform="translate(1110.313352 1034.836563)scale(0.1 -0.1)">
       <use xlink:href="#DejaVuSans-32"/>
       <use xlink:href="#DejaVuSans-30" x="63.623047"/>
      </g>
     </g>
    </g>
    <g id="xtick_21">
     <g id="line2d_21">
      <g>
       <use xlink:href="#m24153fd48d" x="1169.039489" y="1020.238125" style="stroke: #000000; stroke-width: 0.8"/>
      </g>
     </g>
     <g id="text_21">
      <!-- 21 -->
      <g transform="translate(1162.676989 1034.836563)scale(0.1 -0.1)">
       <use xlink:href="#DejaVuSans-32"/>
       <use xlink:href="#DejaVuSans-31" x="63.623047"/>
      </g>
     </g>
    </g>
    <g id="xtick_22">
     <g id="line2d_22">
      <g>
       <use xlink:href="#m24153fd48d" x="1221.403125" y="1020.238125" style="stroke: #000000; stroke-width: 0.8"/>
      </g>
     </g>
     <g id="text_22">
      <!-- 22 -->
      <g transform="translate(1215.040625 1034.836563)scale(0.1 -0.1)">
       <use xlink:href="#DejaVuSans-32"/>
       <use xlink:href="#DejaVuSans-32" x="63.623047"/>
      </g>
     </g>
    </g>
    <g id="xtick_23">
     <g id="line2d_23">
      <g>
       <use xlink:href="#m24153fd48d" x="1273.766761" y="1020.238125" style="stroke: #000000; stroke-width: 0.8"/>
      </g>
     </g>
     <g id="text_23">
      <!-- 23 -->
      <g transform="translate(1267.404261 1034.836563)scale(0.1 -0.1)">
       <use xlink:href="#DejaVuSans-32"/>
       <use xlink:href="#DejaVuSans-33" x="63.623047"/>
      </g>
     </g>
    </g>
    <g id="xtick_24">
     <g id="line2d_24">
      <g>
       <use xlink:href="#m24153fd48d" x="1326.130398" y="1020.238125" style="stroke: #000000; stroke-width: 0.8"/>
      </g>
     </g>
     <g id="text_24">
      <!-- 24 -->
      <g transform="translate(1319.767898 1034.836563)scale(0.1 -0.1)">
       <use xlink:href="#DejaVuSans-32"/>
       <use xlink:href="#DejaVuSans-34" x="63.623047"/>
      </g>
     </g>
    </g>
    <g id="xtick_25">
     <g id="line2d_25">
      <g>
       <use xlink:href="#m24153fd48d" x="1378.494034" y="1020.238125" style="stroke: #000000; stroke-width: 0.8"/>
      </g>
     </g>
     <g id="text_25">
      <!-- 25 -->
      <g transform="translate(1372.131534 1034.836563)scale(0.1 -0.1)">
       <use xlink:href="#DejaVuSans-32"/>
       <use xlink:href="#DejaVuSans-35" x="63.623047"/>
      </g>
     </g>
    </g>
    <g id="xtick_26">
     <g id="line2d_26">
      <g>
       <use xlink:href="#m24153fd48d" x="1430.85767" y="1020.238125" style="stroke: #000000; stroke-width: 0.8"/>
      </g>
     </g>
     <g id="text_26">
      <!-- 26 -->
      <g transform="translate(1424.49517 1034.836563)scale(0.1 -0.1)">
       <use xlink:href="#DejaVuSans-32"/>
       <use xlink:href="#DejaVuSans-36" x="63.623047"/>
      </g>
     </g>
    </g>
    <g id="xtick_27">
     <g id="line2d_27">
      <g>
       <use xlink:href="#m24153fd48d" x="1483.221307" y="1020.238125" style="stroke: #000000; stroke-width: 0.8"/>
      </g>
     </g>
     <g id="text_27">
      <!-- 27 -->
      <g transform="translate(1476.858807 1034.836563)scale(0.1 -0.1)">
       <use xlink:href="#DejaVuSans-32"/>
       <use xlink:href="#DejaVuSans-37" x="63.623047"/>
      </g>
     </g>
    </g>
    <g id="xtick_28">
     <g id="line2d_28">
      <g>
       <use xlink:href="#m24153fd48d" x="1535.584943" y="1020.238125" style="stroke: #000000; stroke-width: 0.8"/>
      </g>
     </g>
     <g id="text_28">
      <!-- 28 -->
      <g transform="translate(1529.222443 1034.836563)scale(0.1 -0.1)">
       <use xlink:href="#DejaVuSans-32"/>
       <use xlink:href="#DejaVuSans-38" x="63.623047"/>
      </g>
     </g>
    </g>
    <g id="xtick_29">
     <g id="line2d_29">
      <g>
       <use xlink:href="#m24153fd48d" x="1587.94858" y="1020.238125" style="stroke: #000000; stroke-width: 0.8"/>
      </g>
     </g>
     <g id="text_29">
      <!-- 29 -->
      <g transform="translate(1581.58608 1034.836563)scale(0.1 -0.1)">
       <use xlink:href="#DejaVuSans-32"/>
       <use xlink:href="#DejaVuSans-39" x="63.623047"/>
      </g>
     </g>
    </g>
    <g id="xtick_30">
     <g id="line2d_30">
      <g>
       <use xlink:href="#m24153fd48d" x="1640.312216" y="1020.238125" style="stroke: #000000; stroke-width: 0.8"/>
      </g>
     </g>
     <g id="text_30">
      <!-- 30 -->
      <g transform="translate(1633.949716 1034.836563)scale(0.1 -0.1)">
       <use xlink:href="#DejaVuSans-33"/>
       <use xlink:href="#DejaVuSans-30" x="63.623047"/>
      </g>
     </g>
    </g>
    <g id="xtick_31">
     <g id="line2d_31">
      <g>
       <use xlink:href="#m24153fd48d" x="1692.675852" y="1020.238125" style="stroke: #000000; stroke-width: 0.8"/>
      </g>
     </g>
     <g id="text_31">
      <!-- 31 -->
      <g transform="translate(1686.313352 1034.836563)scale(0.1 -0.1)">
       <use xlink:href="#DejaVuSans-33"/>
       <use xlink:href="#DejaVuSans-31" x="63.623047"/>
      </g>
     </g>
    </g>
    <g id="xtick_32">
     <g id="line2d_32">
      <g>
       <use xlink:href="#m24153fd48d" x="1745.039489" y="1020.238125" style="stroke: #000000; stroke-width: 0.8"/>
      </g>
     </g>
     <g id="text_32">
      <!-- 32 -->
      <g transform="translate(1738.676989 1034.836563)scale(0.1 -0.1)">
       <use xlink:href="#DejaVuSans-33"/>
       <use xlink:href="#DejaVuSans-32" x="63.623047"/>
      </g>
     </g>
    </g>
    <g id="text_33">
     <!-- threads -->
     <g transform="translate(914.411719 1048.514688)scale(0.1 -0.1)">
      <defs>
       <path id="DejaVuSans-74" d="M 1172 4494 
L 1172 3500 
L 2356 3500 
L 2356 3053 
L 1172 3053 
L 1172 1153 
Q 1172 725 1289 603 
Q 1406 481 1766 481 
L 2356 481 
L 2356 0 
L 1766 0 
Q 1100 0 847 248 
Q 594 497 594 1153 
L 594 3053 
L 172 3053 
L 172 3500 
L 594 3500 
L 594 4494 
L 1172 4494 
z
" transform="scale(0.015625)"/>
       <path id="DejaVuSans-68" d="M 3513 2113 
L 3513 0 
L 2938 0 
L 2938 2094 
Q 2938 2591 2744 2837 
Q 2550 3084 2163 3084 
Q 1697 3084 1428 2787 
Q 1159 2491 1159 1978 
L 1159 0 
L 581 0 
L 581 4863 
L 1159 4863 
L 1159 2956 
Q 1366 3272 1645 3428 
Q 1925 3584 2291 3584 
Q 2894 3584 3203 3211 
Q 3513 2838 3513 2113 
z
" transform="scale(0.015625)"/>
       <path id="DejaVuSans-72" d="M 2631 2963 
Q 2534 3019 2420 3045 
Q 2306 3072 2169 3072 
Q 1681 3072 1420 2755 
Q 1159 2438 1159 1844 
L 1159 0 
L 581 0 
L 581 3500 
L 1159 3500 
L 1159 2956 
Q 1341 3275 1631 3429 
Q 1922 3584 2338 3584 
Q 2397 3584 2469 3576 
Q 2541 3569 2628 3553 
L 2631 2963 
z
" transform="scale(0.015625)"/>
       <path id="DejaVuSans-65" d="M 3597 1894 
L 3597 1613 
L 953 1613 
Q 991 1019 1311 708 
Q 1631 397 2203 397 
Q 2534 397 2845 478 
Q 3156 559 3463 722 
L 3463 178 
Q 3153 47 2828 -22 
Q 2503 -91 2169 -91 
Q 1331 -91 842 396 
Q 353 884 353 1716 
Q 353 2575 817 3079 
Q 1281 3584 2069 3584 
Q 2775 3584 3186 3129 
Q 3597 2675 3597 1894 
z
M 3022 2063 
Q 3016 2534 2758 2815 
Q 2500 3097 2075 3097 
Q 1594 3097 1305 2825 
Q 1016 2553 972 2059 
L 3022 2063 
z
" transform="scale(0.015625)"/>
       <path id="DejaVuSans-61" d="M 2194 1759 
Q 1497 1759 1228 1600 
Q 959 1441 959 1056 
Q 959 750 1161 570 
Q 1363 391 1709 391 
Q 2188 391 2477 730 
Q 2766 1069 2766 1631 
L 2766 1759 
L 2194 1759 
z
M 3341 1997 
L 3341 0 
L 2766 0 
L 2766 531 
Q 2569 213 2275 61 
Q 1981 -91 1556 -91 
Q 1019 -91 701 211 
Q 384 513 384 1019 
Q 384 1609 779 1909 
Q 1175 2209 1959 2209 
L 2766 2209 
L 2766 2266 
Q 2766 2663 2505 2880 
Q 2244 3097 1772 3097 
Q 1472 3097 1187 3025 
Q 903 2953 641 2809 
L 641 3341 
Q 956 3463 1253 3523 
Q 1550 3584 1831 3584 
Q 2591 3584 2966 3190 
Q 3341 2797 3341 1997 
z
" transform="scale(0.015625)"/>
       <path id="DejaVuSans-64" d="M 2906 2969 
L 2906 4863 
L 3481 4863 
L 3481 0 
L 2906 0 
L 2906 525 
Q 2725 213 2448 61 
Q 2172 -91 1784 -91 
Q 1150 -91 751 415 
Q 353 922 353 1747 
Q 353 2572 751 3078 
Q 1150 3584 1784 3584 
Q 2172 3584 2448 3432 
Q 2725 3281 2906 2969 
z
M 947 1747 
Q 947 1113 1208 752 
Q 1469 391 1925 391 
Q 2381 391 2643 752 
Q 2906 1113 2906 1747 
Q 2906 2381 2643 2742 
Q 2381 3103 1925 3103 
Q 1469 3103 1208 2742 
Q 947 2381 947 1747 
z
" transform="scale(0.015625)"/>
       <path id="DejaVuSans-73" d="M 2834 3397 
L 2834 2853 
Q 2591 2978 2328 3040 
Q 2066 3103 1784 3103 
Q 1356 3103 1142 2972 
Q 928 2841 928 2578 
Q 928 2378 1081 2264 
Q 1234 2150 1697 2047 
L 1894 2003 
Q 2506 1872 2764 1633 
Q 3022 1394 3022 966 
Q 3022 478 2636 193 
Q 2250 -91 1575 -91 
Q 1294 -91 989 -36 
Q 684 19 347 128 
L 347 722 
Q 666 556 975 473 
Q 1284 391 1588 391 
Q 1994 391 2212 530 
Q 2431 669 2431 922 
Q 2431 1156 2273 1281 
Q 2116 1406 1581 1522 
L 1381 1569 
Q 847 1681 609 1914 
Q 372 2147 372 2553 
Q 372 3047 722 3315 
Q 1072 3584 1716 3584 
Q 2034 3584 2315 3537 
Q 2597 3491 2834 3397 
z
" transform="scale(0.015625)"/>
      </defs>
      <use xlink:href="#DejaVuSans-74"/>
      <use xlink:href="#DejaVuSans-68" x="39.208984"/>
      <use xlink:href="#DejaVuSans-72" x="102.587891"/>
      <use xlink:href="#DejaVuSans-65" x="141.451172"/>
      <use xlink:href="#DejaVuSans-61" x="202.974609"/>
      <use xlink:href="#DejaVuSans-64" x="264.253906"/>
      <use xlink:href="#DejaVuSans-73" x="327.730469"/>
     </g>
    </g>
   </g>
   <g id="matplotlib.axis_2">
    <g id="ytick_1">
     <g id="line2d_33">
      <defs>
       <path id="maebd2eaca1" d="M 0 0 
L -3.5 0 
" style="stroke: #000000; stroke-width: 0.8"/>
      </defs>
      <g>
       <use xlink:href="#maebd2eaca1" x="40.603125" y="907.593805" style="stroke: #000000; stroke-width: 0.8"/>
      </g>
     </g>
     <g id="text_34">
      <!-- 2 -->
      <g transform="translate(27.240625 911.393024)scale(0.1 -0.1)">
       <use xlink:href="#DejaVuSans-32"/>
      </g>
     </g>
    </g>
    <g id="ytick_2">
     <g id="line2d_34">
      <g>
       <use xlink:href="#maebd2eaca1" x="40.603125" y="773.025166" style="stroke: #000000; stroke-width: 0.8"/>
      </g>
     </g>
     <g id="text_35">
      <!-- 4 -->
      <g transform="translate(27.240625 776.824385)scale(0.1 -0.1)">
       <use xlink:href="#DejaVuSans-34"/>
      </g>
     </g>
    </g>
    <g id="ytick_3">
     <g id="line2d_35">
      <g>
       <use xlink:href="#maebd2eaca1" x="40.603125" y="638.456527" style="stroke: #000000; stroke-width: 0.8"/>
      </g>
     </g>
     <g id="text_36">
      <!-- 6 -->
      <g transform="translate(27.240625 642.255746)scale(0.1 -0.1)">
       <use xlink:href="#DejaVuSans-36"/>
      </g>
     </g>
    </g>
    <g id="ytick_4">
     <g id="line2d_36">
      <g>
       <use xlink:href="#maebd2eaca1" x="40.603125" y="503.887888" style="stroke: #000000; stroke-width: 0.8"/>
      </g>
     </g>
     <g id="text_37">
      <!-- 8 -->
      <g transform="translate(27.240625 507.687107)scale(0.1 -0.1)">
       <use xlink:href="#DejaVuSans-38"/>
      </g>
     </g>
    </g>
    <g id="ytick_5">
     <g id="line2d_37">
      <g>
       <use xlink:href="#maebd2eaca1" x="40.603125" y="369.319249" style="stroke: #000000; stroke-width: 0.8"/>
      </g>
     </g>
     <g id="text_38">
      <!-- 10 -->
      <g transform="translate(20.878125 373.118468)scale(0.1 -0.1)">
       <use xlink:href="#DejaVuSans-31"/>
       <use xlink:href="#DejaVuSans-30" x="63.623047"/>
      </g>
     </g>
    </g>
    <g id="ytick_6">
     <g id="line2d_38">
      <g>
       <use xlink:href="#maebd2eaca1" x="40.603125" y="234.75061" style="stroke: #000000; stroke-width: 0.8"/>
      </g>
     </g>
     <g id="text_39">
      <!-- 12 -->
      <g transform="translate(20.878125 238.549829)scale(0.1 -0.1)">
       <use xlink:href="#DejaVuSans-31"/>
       <use xlink:href="#DejaVuSans-32" x="63.623047"/>
      </g>
     </g>
    </g>
    <g id="ytick_7">
     <g id="line2d_39">
      <g>
       <use xlink:href="#maebd2eaca1" x="40.603125" y="100.181971" style="stroke: #000000; stroke-width: 0.8"/>
      </g>
     </g>
     <g id="text_40">
      <!-- 14 -->
      <g transform="translate(20.878125 103.98119)scale(0.1 -0.1)">
       <use xlink:href="#DejaVuSans-31"/>
       <use xlink:href="#DejaVuSans-34" x="63.623047"/>
      </g>
     </g>
    </g>
    <g id="text_41">
     <!-- speed up -->
     <g transform="translate(14.798438 544.316406)rotate(-90)scale(0.1 -0.1)">
      <defs>
       <path id="DejaVuSans-70" d="M 1159 525 
L 1159 -1331 
L 581 -1331 
L 581 3500 
L 1159 3500 
L 1159 2969 
Q 1341 3281 1617 3432 
Q 1894 3584 2278 3584 
Q 2916 3584 3314 3078 
Q 3713 2572 3713 1747 
Q 3713 922 3314 415 
Q 2916 -91 2278 -91 
Q 1894 -91 1617 61 
Q 1341 213 1159 525 
z
M 3116 1747 
Q 3116 2381 2855 2742 
Q 2594 3103 2138 3103 
Q 1681 3103 1420 2742 
Q 1159 2381 1159 1747 
Q 1159 1113 1420 752 
Q 1681 391 2138 391 
Q 2594 391 2855 752 
Q 3116 1113 3116 1747 
z
" transform="scale(0.015625)"/>
       <path id="DejaVuSans-20" transform="scale(0.015625)"/>
       <path id="DejaVuSans-75" d="M 544 1381 
L 544 3500 
L 1119 3500 
L 1119 1403 
Q 1119 906 1312 657 
Q 1506 409 1894 409 
Q 2359 409 2629 706 
Q 2900 1003 2900 1516 
L 2900 3500 
L 3475 3500 
L 3475 0 
L 2900 0 
L 2900 538 
Q 2691 219 2414 64 
Q 2138 -91 1772 -91 
Q 1169 -91 856 284 
Q 544 659 544 1381 
z
M 1991 3584 
L 1991 3584 
z
" transform="scale(0.015625)"/>
      </defs>
      <use xlink:href="#DejaVuSans-73"/>
      <use xlink:href="#DejaVuSans-70" x="52.099609"/>
      <use xlink:href="#DejaVuSans-65" x="115.576172"/>
      <use xlink:href="#DejaVuSans-65" x="177.099609"/>
      <use xlink:href="#DejaVuSans-64" x="238.623047"/>
      <use xlink:href="#DejaVuSans-20" x="302.099609"/>
      <use xlink:href="#DejaVuSans-75" x="333.886719"/>
      <use xlink:href="#DejaVuSans-70" x="397.265625"/>
     </g>
    </g>
   </g>
   <g id="line2d_40">
    <path d="M 121.766761 974.878125 
L 174.130398 909.089761 
L 226.494034 849.110144 
L 278.85767 782.72984 
L 331.221307 839.206954 
L 383.584943 848.839164 
L 435.94858 800.713367 
L 488.312216 924.401614 
L 540.675852 886.637638 
L 593.039489 973.054436 
L 645.403125 919.311011 
L 697.766761 894.390646 
L 750.130398 908.752357 
L 802.494034 824.304372 
L 854.85767 904.748636 
L 907.221307 944.378218 
L 959.584943 792.272534 
L 1011.94858 939.103721 
L 1064.312216 968.784494 
L 1116.675852 778.143868 
L 1169.039489 953.506878 
L 1221.403125 895.947607 
L 1273.766761 872.603206 
L 1326.130398 685.520043 
L 1378.494034 815.208399 
L 1430.85767 891.686177 
L 1483.221307 889.083145 
L 1535.584943 910.827739 
L 1587.94858 893.98585 
L 1640.312216 779.847029 
L 1692.675852 865.774584 
L 1745.039489 888.768624 
" clip-path="url(#p7df32ba578)" style="fill: none; stroke: #1f77b4; stroke-width: 1.5; stroke-linecap: square"/>
    <defs>
     <path id="m40d8a081c8" d="M 0 3 
C 0.795609 3 1.55874 2.683901 2.12132 2.12132 
C 2.683901 1.55874 3 0.795609 3 0 
C 3 -0.795609 2.683901 -1.55874 2.12132 -2.12132 
C 1.55874 -2.683901 0.795609 -3 0 -3 
C -0.795609 -3 -1.55874 -2.683901 -2.12132 -2.12132 
C -2.683901 -1.55874 -3 -0.795609 -3 0 
C -3 0.795609 -2.683901 1.55874 -2.12132 2.12132 
C -1.55874 2.683901 -0.795609 3 0 3 
z
" style="stroke: #1f77b4"/>
    </defs>
    <g clip-path="url(#p7df32ba578)">
     <use xlink:href="#m40d8a081c8" x="121.766761" y="974.878125" style="fill: #1f77b4; stroke: #1f77b4"/>
     <use xlink:href="#m40d8a081c8" x="174.130398" y="909.089761" style="fill: #1f77b4; stroke: #1f77b4"/>
     <use xlink:href="#m40d8a081c8" x="226.494034" y="849.110144" style="fill: #1f77b4; stroke: #1f77b4"/>
     <use xlink:href="#m40d8a081c8" x="278.85767" y="782.72984" style="fill: #1f77b4; stroke: #1f77b4"/>
     <use xlink:href="#m40d8a081c8" x="331.221307" y="839.206954" style="fill: #1f77b4; stroke: #1f77b4"/>
     <use xlink:href="#m40d8a081c8" x="383.584943" y="848.839164" style="fill: #1f77b4; stroke: #1f77b4"/>
     <use xlink:href="#m40d8a081c8" x="435.94858" y="800.713367" style="fill: #1f77b4; stroke: #1f77b4"/>
     <use xlink:href="#m40d8a081c8" x="488.312216" y="924.401614" style="fill: #1f77b4; stroke: #1f77b4"/>
     <use xlink:href="#m40d8a081c8" x="540.675852" y="886.637638" style="fill: #1f77b4; stroke: #1f77b4"/>
     <use xlink:href="#m40d8a081c8" x="593.039489" y="973.054436" style="fill: #1f77b4; stroke: #1f77b4"/>
     <use xlink:href="#m40d8a081c8" x="645.403125" y="919.311011" style="fill: #1f77b4; stroke: #1f77b4"/>
     <use xlink:href="#m40d8a081c8" x="697.766761" y="894.390646" style="fill: #1f77b4; stroke: #1f77b4"/>
     <use xlink:href="#m40d8a081c8" x="750.130398" y="908.752357" style="fill: #1f77b4; stroke: #1f77b4"/>
     <use xlink:href="#m40d8a081c8" x="802.494034" y="824.304372" style="fill: #1f77b4; stroke: #1f77b4"/>
     <use xlink:href="#m40d8a081c8" x="854.85767" y="904.748636" style="fill: #1f77b4; stroke: #1f77b4"/>
     <use xlink:href="#m40d8a081c8" x="907.221307" y="944.378218" style="fill: #1f77b4; stroke: #1f77b4"/>
     <use xlink:href="#m40d8a081c8" x="959.584943" y="792.272534" style="fill: #1f77b4; stroke: #1f77b4"/>
     <use xlink:href="#m40d8a081c8" x="1011.94858" y="939.103721" style="fill: #1f77b4; stroke: #1f77b4"/>
     <use xlink:href="#m40d8a081c8" x="1064.312216" y="968.784494" style="fill: #1f77b4; stroke: #1f77b4"/>
     <use xlink:href="#m40d8a081c8" x="1116.675852" y="778.143868" style="fill: #1f77b4; stroke: #1f77b4"/>
     <use xlink:href="#m40d8a081c8" x="1169.039489" y="953.506878" style="fill: #1f77b4; stroke: #1f77b4"/>
     <use xlink:href="#m40d8a081c8" x="1221.403125" y="895.947607" style="fill: #1f77b4; stroke: #1f77b4"/>
     <use xlink:href="#m40d8a081c8" x="1273.766761" y="872.603206" style="fill: #1f77b4; stroke: #1f77b4"/>
     <use xlink:href="#m40d8a081c8" x="1326.130398" y="685.520043" style="fill: #1f77b4; stroke: #1f77b4"/>
     <use xlink:href="#m40d8a081c8" x="1378.494034" y="815.208399" style="fill: #1f77b4; stroke: #1f77b4"/>
     <use xlink:href="#m40d8a081c8" x="1430.85767" y="891.686177" style="fill: #1f77b4; stroke: #1f77b4"/>
     <use xlink:href="#m40d8a081c8" x="1483.221307" y="889.083145" style="fill: #1f77b4; stroke: #1f77b4"/>
     <use xlink:href="#m40d8a081c8" x="1535.584943" y="910.827739" style="fill: #1f77b4; stroke: #1f77b4"/>
     <use xlink:href="#m40d8a081c8" x="1587.94858" y="893.98585" style="fill: #1f77b4; stroke: #1f77b4"/>
     <use xlink:href="#m40d8a081c8" x="1640.312216" y="779.847029" style="fill: #1f77b4; stroke: #1f77b4"/>
     <use xlink:href="#m40d8a081c8" x="1692.675852" y="865.774584" style="fill: #1f77b4; stroke: #1f77b4"/>
     <use xlink:href="#m40d8a081c8" x="1745.039489" y="888.768624" style="fill: #1f77b4; stroke: #1f77b4"/>
    </g>
   </g>
   <g id="line2d_41">
    <path d="M 121.766761 974.878125 
L 174.130398 907.971944 
L 226.494034 847.25864 
L 278.85767 806.885823 
L 331.221307 745.876078 
L 383.584943 746.840525 
L 435.94858 695.344098 
L 488.312216 675.219327 
L 540.675852 750.477212 
L 593.039489 783.808201 
L 645.403125 763.222422 
L 697.766761 815.118351 
L 750.130398 718.858798 
L 802.494034 599.169248 
L 854.85767 775.941804 
L 907.221307 833.26912 
L 959.584943 717.129936 
L 1011.94858 716.870553 
L 1064.312216 719.662172 
L 1116.675852 749.194452 
L 1169.039489 853.66499 
L 1221.403125 613.545555 
L 1273.766761 777.352267 
L 1326.130398 583.204321 
L 1378.494034 828.23005 
L 1430.85767 724.098718 
L 1483.221307 651.937406 
L 1535.584943 687.826634 
L 1587.94858 794.569005 
L 1640.312216 829.046338 
L 1692.675852 591.983861 
L 1745.039489 663.54487 
" clip-path="url(#p7df32ba578)" style="fill: none; stroke: #ff7f0e; stroke-width: 1.5; stroke-linecap: square"/>
    <defs>
     <path id="m82000cf494" d="M 0 3 
C 0.795609 3 1.55874 2.683901 2.12132 2.12132 
C 2.683901 1.55874 3 0.795609 3 0 
C 3 -0.795609 2.683901 -1.55874 2.12132 -2.12132 
C 1.55874 -2.683901 0.795609 -3 0 -3 
C -0.795609 -3 -1.55874 -2.683901 -2.12132 -2.12132 
C -2.683901 -1.55874 -3 -0.795609 -3 0 
C -3 0.795609 -2.683901 1.55874 -2.12132 2.12132 
C -1.55874 2.683901 -0.795609 3 0 3 
z
" style="stroke: #ff7f0e"/>
    </defs>
    <g clip-path="url(#p7df32ba578)">
     <use xlink:href="#m82000cf494" x="121.766761" y="974.878125" style="fill: #ff7f0e; stroke: #ff7f0e"/>
     <use xlink:href="#m82000cf494" x="174.130398" y="907.971944" style="fill: #ff7f0e; stroke: #ff7f0e"/>
     <use xlink:href="#m82000cf494" x="226.494034" y="847.25864" style="fill: #ff7f0e; stroke: #ff7f0e"/>
     <use xlink:href="#m82000cf494" x="278.85767" y="806.885823" style="fill: #ff7f0e; stroke: #ff7f0e"/>
     <use xlink:href="#m82000cf494" x="331.221307" y="745.876078" style="fill: #ff7f0e; stroke: #ff7f0e"/>
     <use xlink:href="#m82000cf494" x="383.584943" y="746.840525" style="fill: #ff7f0e; stroke: #ff7f0e"/>
     <use xlink:href="#m82000cf494" x="435.94858" y="695.344098" style="fill: #ff7f0e; stroke: #ff7f0e"/>
     <use xlink:href="#m82000cf494" x="488.312216" y="675.219327" style="fill: #ff7f0e; stroke: #ff7f0e"/>
     <use xlink:href="#m82000cf494" x="540.675852" y="750.477212" style="fill: #ff7f0e; stroke: #ff7f0e"/>
     <use xlink:href="#m82000cf494" x="593.039489" y="783.808201" style="fill: #ff7f0e; stroke: #ff7f0e"/>
     <use xlink:href="#m82000cf494" x="645.403125" y="763.222422" style="fill: #ff7f0e; stroke: #ff7f0e"/>
     <use xlink:href="#m82000cf494" x="697.766761" y="815.118351" style="fill: #ff7f0e; stroke: #ff7f0e"/>
     <use xlink:href="#m82000cf494" x="750.130398" y="718.858798" style="fill: #ff7f0e; stroke: #ff7f0e"/>
     <use xlink:href="#m82000cf494" x="802.494034" y="599.169248" style="fill: #ff7f0e; stroke: #ff7f0e"/>
     <use xlink:href="#m82000cf494" x="854.85767" y="775.941804" style="fill: #ff7f0e; stroke: #ff7f0e"/>
     <use xlink:href="#m82000cf494" x="907.221307" y="833.26912" style="fill: #ff7f0e; stroke: #ff7f0e"/>
     <use xlink:href="#m82000cf494" x="959.584943" y="717.129936" style="fill: #ff7f0e; stroke: #ff7f0e"/>
     <use xlink:href="#m82000cf494" x="1011.94858" y="716.870553" style="fill: #ff7f0e; stroke: #ff7f0e"/>
     <use xlink:href="#m82000cf494" x="1064.312216" y="719.662172" style="fill: #ff7f0e; stroke: #ff7f0e"/>
     <use xlink:href="#m82000cf494" x="1116.675852" y="749.194452" style="fill: #ff7f0e; stroke: #ff7f0e"/>
     <use xlink:href="#m82000cf494" x="1169.039489" y="853.66499" style="fill: #ff7f0e; stroke: #ff7f0e"/>
     <use xlink:href="#m82000cf494" x="1221.403125" y="613.545555" style="fill: #ff7f0e; stroke: #ff7f0e"/>
     <use xlink:href="#m82000cf494" x="1273.766761" y="777.352267" style="fill: #ff7f0e; stroke: #ff7f0e"/>
     <use xlink:href="#m82000cf494" x="1326.130398" y="583.204321" style="fill: #ff7f0e; stroke: #ff7f0e"/>
     <use xlink:href="#m82000cf494" x="1378.494034" y="828.23005" style="fill: #ff7f0e; stroke: #ff7f0e"/>
     <use xlink:href="#m82000cf494" x="1430.85767" y="724.098718" style="fill: #ff7f0e; stroke: #ff7f0e"/>
     <use xlink:href="#m82000cf494" x="1483.221307" y="651.937406" style="fill: #ff7f0e; stroke: #ff7f0e"/>
     <use xlink:href="#m82000cf494" x="1535.584943" y="687.826634" style="fill: #ff7f0e; stroke: #ff7f0e"/>
     <use xlink:href="#m82000cf494" x="1587.94858" y="794.569005" style="fill: #ff7f0e; stroke: #ff7f0e"/>
     <use xlink:href="#m82000cf494" x="1640.312216" y="829.046338" style="fill: #ff7f0e; stroke: #ff7f0e"/>
     <use xlink:href="#m82000cf494" x="1692.675852" y="591.983861" style="fill: #ff7f0e; stroke: #ff7f0e"/>
     <use xlink:href="#m82000cf494" x="1745.039489" y="663.54487" style="fill: #ff7f0e; stroke: #ff7f0e"/>
    </g>
   </g>
   <g id="line2d_42">
    <path d="M 121.766761 974.878125 
L 174.130398 907.950927 
L 226.494034 844.573522 
L 278.85767 779.971945 
L 331.221307 745.67389 
L 383.584943 689.97537 
L 435.94858 664.352894 
L 488.312216 620.676278 
L 540.675852 598.823177 
L 593.039489 551.152197 
L 645.403125 613.363313 
L 697.766761 663.672348 
L 750.130398 542.898585 
L 802.494034 520.160048 
L 854.85767 639.201418 
L 907.221307 589.492978 
L 959.584943 674.636583 
L 1011.94858 413.962672 
L 1064.312216 518.440422 
L 1116.675852 408.792413 
L 1169.039489 499.636564 
L 1221.403125 588.213118 
L 1273.766761 691.34243 
L 1326.130398 686.40623 
L 1378.494034 416.586399 
L 1430.85767 366.646533 
L 1483.221307 460.095651 
L 1535.584943 575.571094 
L 1587.94858 607.653145 
L 1640.312216 499.522507 
L 1692.675852 475.024762 
L 1745.039489 380.95431 
" clip-path="url(#p7df32ba578)" style="fill: none; stroke: #2ca02c; stroke-width: 1.5; stroke-linecap: square"/>
    <defs>
     <path id="m84954a0d0e" d="M 0 3 
C 0.795609 3 1.55874 2.683901 2.12132 2.12132 
C 2.683901 1.55874 3 0.795609 3 0 
C 3 -0.795609 2.683901 -1.55874 2.12132 -2.12132 
C 1.55874 -2.683901 0.795609 -3 0 -3 
C -0.795609 -3 -1.55874 -2.683901 -2.12132 -2.12132 
C -2.683901 -1.55874 -3 -0.795609 -3 0 
C -3 0.795609 -2.683901 1.55874 -2.12132 2.12132 
C -1.55874 2.683901 -0.795609 3 0 3 
z
" style="stroke: #2ca02c"/>
    </defs>
    <g clip-path="url(#p7df32ba578)">
     <use xlink:href="#m84954a0d0e" x="121.766761" y="974.878125" style="fill: #2ca02c; stroke: #2ca02c"/>
     <use xlink:href="#m84954a0d0e" x="174.130398" y="907.950927" style="fill: #2ca02c; stroke: #2ca02c"/>
     <use xlink:href="#m84954a0d0e" x="226.494034" y="844.573522" style="fill: #2ca02c; stroke: #2ca02c"/>
     <use xlink:href="#m84954a0d0e" x="278.85767" y="779.971945" style="fill: #2ca02c; stroke: #2ca02c"/>
     <use xlink:href="#m84954a0d0e" x="331.221307" y="745.67389" style="fill: #2ca02c; stroke: #2ca02c"/>
     <use xlink:href="#m84954a0d0e" x="383.584943" y="689.97537" style="fill: #2ca02c; stroke: #2ca02c"/>
     <use xlink:href="#m84954a0d0e" x="435.94858" y="664.352894" style="fill: #2ca02c; stroke: #2ca02c"/>
     <use xlink:href="#m84954a0d0e" x="488.312216" y="620.676278" style="fill: #2ca02c; stroke: #2ca02c"/>
     <use xlink:href="#m84954a0d0e" x="540.675852" y="598.823177" style="fill: #2ca02c; stroke: #2ca02c"/>
     <use xlink:href="#m84954a0d0e" x="593.039489" y="551.152197" style="fill: #2ca02c; stroke: #2ca02c"/>
     <use xlink:href="#m84954a0d0e" x="645.403125" y="613.363313" style="fill: #2ca02c; stroke: #2ca02c"/>
     <use xlink:href="#m84954a0d0e" x="697.766761" y="663.672348" style="fill: #2ca02c; stroke: #2ca02c"/>
     <use xlink:href="#m84954a0d0e" x="750.130398" y="542.898585" style="fill: #2ca02c; stroke: #2ca02c"/>
     <use xlink:href="#m84954a0d0e" x="802.494034" y="520.160048" style="fill: #2ca02c; stroke: #2ca02c"/>
     <use xlink:href="#m84954a0d0e" x="854.85767" y="639.201418" style="fill: #2ca02c; stroke: #2ca02c"/>
     <use xlink:href="#m84954a0d0e" x="907.221307" y="589.492978" style="fill: #2ca02c; stroke: #2ca02c"/>
     <use xlink:href="#m84954a0d0e" x="959.584943" y="674.636583" style="fill: #2ca02c; stroke: #2ca02c"/>
     <use xlink:href="#m84954a0d0e" x="1011.94858" y="413.962672" style="fill: #2ca02c; stroke: #2ca02c"/>
     <use xlink:href="#m84954a0d0e" x="1064.312216" y="518.440422" style="fill: #2ca02c; stroke: #2ca02c"/>
     <use xlink:href="#m84954a0d0e" x="1116.675852" y="408.792413" style="fill: #2ca02c; stroke: #2ca02c"/>
     <use xlink:href="#m84954a0d0e" x="1169.039489" y="499.636564" style="fill: #2ca02c; stroke: #2ca02c"/>
     <use xlink:href="#m84954a0d0e" x="1221.403125" y="588.213118" style="fill: #2ca02c; stroke: #2ca02c"/>
     <use xlink:href="#m84954a0d0e" x="1273.766761" y="691.34243" style="fill: #2ca02c; stroke: #2ca02c"/>
     <use xlink:href="#m84954a0d0e" x="1326.130398" y="686.40623" style="fill: #2ca02c; stroke: #2ca02c"/>
     <use xlink:href="#m84954a0d0e" x="1378.494034" y="416.586399" style="fill: #2ca02c; stroke: #2ca02c"/>
     <use xlink:href="#m84954a0d0e" x="1430.85767" y="366.646533" style="fill: #2ca02c; stroke: #2ca02c"/>
     <use xlink:href="#m84954a0d0e" x="1483.221307" y="460.095651" style="fill: #2ca02c; stroke: #2ca02c"/>
     <use xlink:href="#m84954a0d0e" x="1535.584943" y="575.571094" style="fill: #2ca02c; stroke: #2ca02c"/>
     <use xlink:href="#m84954a0d0e" x="1587.94858" y="607.653145" style="fill: #2ca02c; stroke: #2ca02c"/>
     <use xlink:href="#m84954a0d0e" x="1640.312216" y="499.522507" style="fill: #2ca02c; stroke: #2ca02c"/>
     <use xlink:href="#m84954a0d0e" x="1692.675852" y="475.024762" style="fill: #2ca02c; stroke: #2ca02c"/>
     <use xlink:href="#m84954a0d0e" x="1745.039489" y="380.95431" style="fill: #2ca02c; stroke: #2ca02c"/>
    </g>
   </g>
   <g id="line2d_43">
    <path d="M 121.766761 974.878125 
L 174.130398 907.989027 
L 226.494034 842.429993 
L 278.85767 777.743519 
L 331.221307 712.650272 
L 383.584943 653.088786 
L 435.94858 592.74793 
L 488.312216 510.126593 
L 540.675852 476.810584 
L 593.039489 389.356765 
L 645.403125 443.848715 
L 697.766761 427.718644 
L 750.130398 361.393149 
L 802.494034 345.403127 
L 854.85767 330.094669 
L 907.221307 297.357943 
L 959.584943 244.076865 
L 1011.94858 204.250927 
L 1064.312216 192.230419 
L 1116.675852 169.981631 
L 1169.039489 166.714773 
L 1221.403125 127.592482 
L 1273.766761 77.871521 
L 1326.130398 82.90709 
L 1378.494034 135.823373 
L 1430.85767 75.480152 
L 1483.221307 77.224067 
L 1535.584943 91.681962 
L 1587.94858 108.716982 
L 1640.312216 84.745457 
L 1692.675852 117.852403 
L 1745.039489 67.678125 
" clip-path="url(#p7df32ba578)" style="fill: none; stroke: #d62728; stroke-width: 1.5; stroke-linecap: square"/>
    <defs>
     <path id="m382b5a553e" d="M 0 3 
C 0.795609 3 1.55874 2.683901 2.12132 2.12132 
C 2.683901 1.55874 3 0.795609 3 0 
C 3 -0.795609 2.683901 -1.55874 2.12132 -2.12132 
C 1.55874 -2.683901 0.795609 -3 0 -3 
C -0.795609 -3 -1.55874 -2.683901 -2.12132 -2.12132 
C -2.683901 -1.55874 -3 -0.795609 -3 0 
C -3 0.795609 -2.683901 1.55874 -2.12132 2.12132 
C -1.55874 2.683901 -0.795609 3 0 3 
z
" style="stroke: #d62728"/>
    </defs>
    <g clip-path="url(#p7df32ba578)">
     <use xlink:href="#m382b5a553e" x="121.766761" y="974.878125" style="fill: #d62728; stroke: #d62728"/>
     <use xlink:href="#m382b5a553e" x="174.130398" y="907.989027" style="fill: #d62728; stroke: #d62728"/>
     <use xlink:href="#m382b5a553e" x="226.494034" y="842.429993" style="fill: #d62728; stroke: #d62728"/>
     <use xlink:href="#m382b5a553e" x="278.85767" y="777.743519" style="fill: #d62728; stroke: #d62728"/>
     <use xlink:href="#m382b5a553e" x="331.221307" y="712.650272" style="fill: #d62728; stroke: #d62728"/>
     <use xlink:href="#m382b5a553e" x="383.584943" y="653.088786" style="fill: #d62728; stroke: #d62728"/>
     <use xlink:href="#m382b5a553e" x="435.94858" y="592.74793" style="fill: #d62728; stroke: #d62728"/>
     <use xlink:href="#m382b5a553e" x="488.312216" y="510.126593" style="fill: #d62728; stroke: #d62728"/>
     <use xlink:href="#m382b5a553e" x="540.675852" y="476.810584" style="fill: #d62728; stroke: #d62728"/>
     <use xlink:href="#m382b5a553e" x="593.039489" y="389.356765" style="fill: #d62728; stroke: #d62728"/>
     <use xlink:href="#m382b5a553e" x="645.403125" y="443.848715" style="fill: #d62728; stroke: #d62728"/>
     <use xlink:href="#m382b5a553e" x="697.766761" y="427.718644" style="fill: #d62728; stroke: #d62728"/>
     <use xlink:href="#m382b5a553e" x="750.130398" y="361.393149" style="fill: #d62728; stroke: #d62728"/>
     <use xlink:href="#m382b5a553e" x="802.494034" y="345.403127" style="fill: #d62728; stroke: #d62728"/>
     <use xlink:href="#m382b5a553e" x="854.85767" y="330.094669" style="fill: #d62728; stroke: #d62728"/>
     <use xlink:href="#m382b5a553e" x="907.221307" y="297.357943" style="fill: #d62728; stroke: #d62728"/>
     <use xlink:href="#m382b5a553e" x="959.584943" y="244.076865" style="fill: #d62728; stroke: #d62728"/>
     <use xlink:href="#m382b5a553e" x="1011.94858" y="204.250927" style="fill: #d62728; stroke: #d62728"/>
     <use xlink:href="#m382b5a553e" x="1064.312216" y="192.230419" style="fill: #d62728; stroke: #d62728"/>
     <use xlink:href="#m382b5a553e" x="1116.675852" y="169.981631" style="fill: #d62728; stroke: #d62728"/>
     <use xlink:href="#m382b5a553e" x="1169.039489" y="166.714773" style="fill: #d62728; stroke: #d62728"/>
     <use xlink:href="#m382b5a553e" x="1221.403125" y="127.592482" style="fill: #d62728; stroke: #d62728"/>
     <use xlink:href="#m382b5a553e" x="1273.766761" y="77.871521" style="fill: #d62728; stroke: #d62728"/>
     <use xlink:href="#m382b5a553e" x="1326.130398" y="82.90709" style="fill: #d62728; stroke: #d62728"/>
     <use xlink:href="#m382b5a553e" x="1378.494034" y="135.823373" style="fill: #d62728; stroke: #d62728"/>
     <use xlink:href="#m382b5a553e" x="1430.85767" y="75.480152" style="fill: #d62728; stroke: #d62728"/>
     <use xlink:href="#m382b5a553e" x="1483.221307" y="77.224067" style="fill: #d62728; stroke: #d62728"/>
     <use xlink:href="#m382b5a553e" x="1535.584943" y="91.681962" style="fill: #d62728; stroke: #d62728"/>
     <use xlink:href="#m382b5a553e" x="1587.94858" y="108.716982" style="fill: #d62728; stroke: #d62728"/>
     <use xlink:href="#m382b5a553e" x="1640.312216" y="84.745457" style="fill: #d62728; stroke: #d62728"/>
     <use xlink:href="#m382b5a553e" x="1692.675852" y="117.852403" style="fill: #d62728; stroke: #d62728"/>
     <use xlink:href="#m382b5a553e" x="1745.039489" y="67.678125" style="fill: #d62728; stroke: #d62728"/>
    </g>
   </g>
   <g id="patch_3">
    <path d="M 40.603125 1020.238125 
L 40.603125 22.318125 
" style="fill: none; stroke: #000000; stroke-width: 0.8; stroke-linejoin: miter; stroke-linecap: square"/>
   </g>
   <g id="patch_4">
    <path d="M 1826.203125 1020.238125 
L 1826.203125 22.318125 
" style="fill: none; stroke: #000000; stroke-width: 0.8; stroke-linejoin: miter; stroke-linecap: square"/>
   </g>
   <g id="patch_5">
    <path d="M 40.603125 1020.238125 
L 1826.203125 1020.238125 
" style="fill: none; stroke: #000000; stroke-width: 0.8; stroke-linejoin: miter; stroke-linecap: square"/>
   </g>
   <g id="patch_6">
    <path d="M 40.603125 22.318125 
L 1826.203125 22.318125 
" style="fill: none; stroke: #000000; stroke-width: 0.8; stroke-linejoin: miter; stroke-linecap: square"/>
   </g>
   <g id="text_42">
    <!-- speed up -->
    <g transform="translate(905.757188 16.318125)scale(0.12 -0.12)">
     <use xlink:href="#DejaVuSans-73"/>
     <use xlink:href="#DejaVuSans-70" x="52.099609"/>
     <use xlink:href="#DejaVuSans-65" x="115.576172"/>
     <use xlink:href="#DejaVuSans-65" x="177.099609"/>
     <use xlink:href="#DejaVuSans-64" x="238.623047"/>
     <use xlink:href="#DejaVuSans-20" x="302.099609"/>
     <use xlink:href="#DejaVuSans-75" x="333.886719"/>
     <use xlink:href="#DejaVuSans-70" x="397.265625"/>
    </g>
   </g>
   <g id="legend_1">
    <g id="patch_7">
     <path d="M 47.603125 89.030625 
L 138.429688 89.030625 
Q 140.429688 89.030625 140.429688 87.030625 
L 140.429688 29.318125 
Q 140.429688 27.318125 138.429688 27.318125 
L 47.603125 27.318125 
Q 45.603125 27.318125 45.603125 29.318125 
L 45.603125 87.030625 
Q 45.603125 89.030625 47.603125 89.030625 
z
" style="fill: #ffffff; opacity: 0.8; stroke: #cccccc; stroke-linejoin: miter"/>
    </g>
    <g id="line2d_44">
     <path d="M 49.603125 35.416562 
L 59.603125 35.416562 
L 69.603125 35.416562 
" style="fill: none; stroke: #1f77b4; stroke-width: 1.5; stroke-linecap: square"/>
     <g>
      <use xlink:href="#m40d8a081c8" x="59.603125" y="35.416562" style="fill: #1f77b4; stroke: #1f77b4"/>
     </g>
    </g>
    <g id="text_43">
     <!-- simsmall -->
     <g transform="translate(77.603125 38.916562)scale(0.1 -0.1)">
      <defs>
       <path id="DejaVuSans-69" d="M 603 3500 
L 1178 3500 
L 1178 0 
L 603 0 
L 603 3500 
z
M 603 4863 
L 1178 4863 
L 1178 4134 
L 603 4134 
L 603 4863 
z
" transform="scale(0.015625)"/>
       <path id="DejaVuSans-6d" d="M 3328 2828 
Q 3544 3216 3844 3400 
Q 4144 3584 4550 3584 
Q 5097 3584 5394 3201 
Q 5691 2819 5691 2113 
L 5691 0 
L 5113 0 
L 5113 2094 
Q 5113 2597 4934 2840 
Q 4756 3084 4391 3084 
Q 3944 3084 3684 2787 
Q 3425 2491 3425 1978 
L 3425 0 
L 2847 0 
L 2847 2094 
Q 2847 2600 2669 2842 
Q 2491 3084 2119 3084 
Q 1678 3084 1418 2786 
Q 1159 2488 1159 1978 
L 1159 0 
L 581 0 
L 581 3500 
L 1159 3500 
L 1159 2956 
Q 1356 3278 1631 3431 
Q 1906 3584 2284 3584 
Q 2666 3584 2933 3390 
Q 3200 3197 3328 2828 
z
" transform="scale(0.015625)"/>
       <path id="DejaVuSans-6c" d="M 603 4863 
L 1178 4863 
L 1178 0 
L 603 0 
L 603 4863 
z
" transform="scale(0.015625)"/>
      </defs>
      <use xlink:href="#DejaVuSans-73"/>
      <use xlink:href="#DejaVuSans-69" x="52.099609"/>
      <use xlink:href="#DejaVuSans-6d" x="79.882812"/>
      <use xlink:href="#DejaVuSans-73" x="177.294922"/>
      <use xlink:href="#DejaVuSans-6d" x="229.394531"/>
      <use xlink:href="#DejaVuSans-61" x="326.806641"/>
      <use xlink:href="#DejaVuSans-6c" x="388.085938"/>
      <use xlink:href="#DejaVuSans-6c" x="415.869141"/>
     </g>
    </g>
    <g id="line2d_45">
     <path d="M 49.603125 50.094687 
L 59.603125 50.094687 
L 69.603125 50.094687 
" style="fill: none; stroke: #ff7f0e; stroke-width: 1.5; stroke-linecap: square"/>
     <g>
      <use xlink:href="#m82000cf494" x="59.603125" y="50.094687" style="fill: #ff7f0e; stroke: #ff7f0e"/>
     </g>
    </g>
    <g id="text_44">
     <!-- simmedium -->
     <g transform="translate(77.603125 53.594687)scale(0.1 -0.1)">
      <use xlink:href="#DejaVuSans-73"/>
      <use xlink:href="#DejaVuSans-69" x="52.099609"/>
      <use xlink:href="#DejaVuSans-6d" x="79.882812"/>
      <use xlink:href="#DejaVuSans-6d" x="177.294922"/>
      <use xlink:href="#DejaVuSans-65" x="274.707031"/>
      <use xlink:href="#DejaVuSans-64" x="336.230469"/>
      <use xlink:href="#DejaVuSans-69" x="399.707031"/>
      <use xlink:href="#DejaVuSans-75" x="427.490234"/>
      <use xlink:href="#DejaVuSans-6d" x="490.869141"/>
     </g>
    </g>
    <g id="line2d_46">
     <path d="M 49.603125 64.772812 
L 59.603125 64.772812 
L 69.603125 64.772812 
" style="fill: none; stroke: #2ca02c; stroke-width: 1.5; stroke-linecap: square"/>
     <g>
      <use xlink:href="#m84954a0d0e" x="59.603125" y="64.772812" style="fill: #2ca02c; stroke: #2ca02c"/>
     </g>
    </g>
    <g id="text_45">
     <!-- simlarge -->
     <g transform="translate(77.603125 68.272812)scale(0.1 -0.1)">
      <defs>
       <path id="DejaVuSans-67" d="M 2906 1791 
Q 2906 2416 2648 2759 
Q 2391 3103 1925 3103 
Q 1463 3103 1205 2759 
Q 947 2416 947 1791 
Q 947 1169 1205 825 
Q 1463 481 1925 481 
Q 2391 481 2648 825 
Q 2906 1169 2906 1791 
z
M 3481 434 
Q 3481 -459 3084 -895 
Q 2688 -1331 1869 -1331 
Q 1566 -1331 1297 -1286 
Q 1028 -1241 775 -1147 
L 775 -588 
Q 1028 -725 1275 -790 
Q 1522 -856 1778 -856 
Q 2344 -856 2625 -561 
Q 2906 -266 2906 331 
L 2906 616 
Q 2728 306 2450 153 
Q 2172 0 1784 0 
Q 1141 0 747 490 
Q 353 981 353 1791 
Q 353 2603 747 3093 
Q 1141 3584 1784 3584 
Q 2172 3584 2450 3431 
Q 2728 3278 2906 2969 
L 2906 3500 
L 3481 3500 
L 3481 434 
z
" transform="scale(0.015625)"/>
      </defs>
      <use xlink:href="#DejaVuSans-73"/>
      <use xlink:href="#DejaVuSans-69" x="52.099609"/>
      <use xlink:href="#DejaVuSans-6d" x="79.882812"/>
      <use xlink:href="#DejaVuSans-6c" x="177.294922"/>
      <use xlink:href="#DejaVuSans-61" x="205.078125"/>
      <use xlink:href="#DejaVuSans-72" x="266.357422"/>
      <use xlink:href="#DejaVuSans-67" x="305.720703"/>
      <use xlink:href="#DejaVuSans-65" x="369.197266"/>
     </g>
    </g>
    <g id="line2d_47">
     <path d="M 49.603125 79.450937 
L 59.603125 79.450937 
L 69.603125 79.450937 
" style="fill: none; stroke: #d62728; stroke-width: 1.5; stroke-linecap: square"/>
     <g>
      <use xlink:href="#m382b5a553e" x="59.603125" y="79.450937" style="fill: #d62728; stroke: #d62728"/>
     </g>
    </g>
    <g id="text_46">
     <!-- native -->
     <g transform="translate(77.603125 82.950937)scale(0.1 -0.1)">
      <defs>
       <path id="DejaVuSans-6e" d="M 3513 2113 
L 3513 0 
L 2938 0 
L 2938 2094 
Q 2938 2591 2744 2837 
Q 2550 3084 2163 3084 
Q 1697 3084 1428 2787 
Q 1159 2491 1159 1978 
L 1159 0 
L 581 0 
L 581 3500 
L 1159 3500 
L 1159 2956 
Q 1366 3272 1645 3428 
Q 1925 3584 2291 3584 
Q 2894 3584 3203 3211 
Q 3513 2838 3513 2113 
z
" transform="scale(0.015625)"/>
       <path id="DejaVuSans-76" d="M 191 3500 
L 800 3500 
L 1894 563 
L 2988 3500 
L 3597 3500 
L 2284 0 
L 1503 0 
L 191 3500 
z
" transform="scale(0.015625)"/>
      </defs>
      <use xlink:href="#DejaVuSans-6e"/>
      <use xlink:href="#DejaVuSans-61" x="63.378906"/>
      <use xlink:href="#DejaVuSans-74" x="124.658203"/>
      <use xlink:href="#DejaVuSans-69" x="163.867188"/>
      <use xlink:href="#DejaVuSans-76" x="191.650391"/>
      <use xlink:href="#DejaVuSans-65" x="250.830078"/>
     </g>
    </g>
   </g>
  </g>
 </g>
 <defs>
  <clipPath id="p7df32ba578">
   <rect x="40.603125" y="22.318125" width="1785.6" height="997.92"/>
  </clipPath>
 </defs>
</svg>
