<?xml version="1.0" encoding="utf-8" standalone="no"?>
<!DOCTYPE svg PUBLIC "-//W3C//DTD SVG 1.1//EN"
  "http://www.w3.org/Graphics/SVG/1.1/DTD/svg11.dtd">
<svg xmlns:xlink="http://www.w3.org/1999/xlink" width="1839.765625pt" height="1057.794375pt" viewBox="0 0 1839.765625 1057.794375" xmlns="http://www.w3.org/2000/svg" version="1.1">
 <metadata>
  <rdf:RDF xmlns:dc="http://purl.org/dc/elements/1.1/" xmlns:cc="http://creativecommons.org/ns#" xmlns:rdf="http://www.w3.org/1999/02/22-rdf-syntax-ns#">
   <cc:Work>
    <dc:type rdf:resource="http://purl.org/dc/dcmitype/StillImage"/>
    <dc:date>2022-06-15T15:57:46.475699</dc:date>
    <dc:format>image/svg+xml</dc:format>
    <dc:creator>
     <cc:Agent>
      <dc:title>Matplotlib v3.5.2, https://matplotlib.org/</dc:title>
     </cc:Agent>
    </dc:creator>
   </cc:Work>
  </rdf:RDF>
 </metadata>
 <defs>
  <style type="text/css">*{stroke-linejoin: round; stroke-linecap: butt}</style>
 </defs>
 <g id="figure_1">
  <g id="patch_1">
   <path d="M 0 1057.794375 
L 1839.765625 1057.794375 
L 1839.765625 0 
L 0 0 
z
" style="fill: #ffffff"/>
  </g>
  <g id="axes_1">
   <g id="patch_2">
    <path d="M 46.965625 1020.238125 
L 1832.565625 1020.238125 
L 1832.565625 22.318125 
L 46.965625 22.318125 
z
" style="fill: #ffffff"/>
   </g>
   <g id="matplotlib.axis_1">
    <g id="xtick_1">
     <g id="line2d_1">
      <defs>
       <path id="ma9cba658b3" d="M 0 0 
L 0 3.5 
" style="stroke: #000000; stroke-width: 0.8"/>
      </defs>
      <g>
       <use xlink:href="#ma9cba658b3" x="128.129261" y="1020.238125" style="stroke: #000000; stroke-width: 0.8"/>
      </g>
     </g>
     <g id="text_1">
      <!-- 1 -->
      <g transform="translate(124.948011 1034.836563)scale(0.1 -0.1)">
       <defs>
        <path id="DejaVuSans-31" d="M 794 531 
L 1825 531 
L 1825 4091 
L 703 3866 
L 703 4441 
L 1819 4666 
L 2450 4666 
L 2450 531 
L 3481 531 
L 3481 0 
L 794 0 
L 794 531 
z
" transform="scale(0.015625)"/>
       </defs>
       <use xlink:href="#DejaVuSans-31"/>
      </g>
     </g>
    </g>
    <g id="xtick_2">
     <g id="line2d_2">
      <g>
       <use xlink:href="#ma9cba658b3" x="180.492898" y="1020.238125" style="stroke: #000000; stroke-width: 0.8"/>
      </g>
     </g>
     <g id="text_2">
      <!-- 2 -->
      <g transform="translate(177.311648 1034.836563)scale(0.1 -0.1)">
       <defs>
        <path id="DejaVuSans-32" d="M 1228 531 
L 3431 531 
L 3431 0 
L 469 0 
L 469 531 
Q 828 903 1448 1529 
Q 2069 2156 2228 2338 
Q 2531 2678 2651 2914 
Q 2772 3150 2772 3378 
Q 2772 3750 2511 3984 
Q 2250 4219 1831 4219 
Q 1534 4219 1204 4116 
Q 875 4013 500 3803 
L 500 4441 
Q 881 4594 1212 4672 
Q 1544 4750 1819 4750 
Q 2544 4750 2975 4387 
Q 3406 4025 3406 3419 
Q 3406 3131 3298 2873 
Q 3191 2616 2906 2266 
Q 2828 2175 2409 1742 
Q 1991 1309 1228 531 
z
" transform="scale(0.015625)"/>
       </defs>
       <use xlink:href="#DejaVuSans-32"/>
      </g>
     </g>
    </g>
    <g id="xtick_3">
     <g id="line2d_3">
      <g>
       <use xlink:href="#ma9cba658b3" x="232.856534" y="1020.238125" style="stroke: #000000; stroke-width: 0.8"/>
      </g>
     </g>
     <g id="text_3">
      <!-- 3 -->
      <g transform="translate(229.675284 1034.836563)scale(0.1 -0.1)">
       <defs>
        <path id="DejaVuSans-33" d="M 2597 2516 
Q 3050 2419 3304 2112 
Q 3559 1806 3559 1356 
Q 3559 666 3084 287 
Q 2609 -91 1734 -91 
Q 1441 -91 1130 -33 
Q 819 25 488 141 
L 488 750 
Q 750 597 1062 519 
Q 1375 441 1716 441 
Q 2309 441 2620 675 
Q 2931 909 2931 1356 
Q 2931 1769 2642 2001 
Q 2353 2234 1838 2234 
L 1294 2234 
L 1294 2753 
L 1863 2753 
Q 2328 2753 2575 2939 
Q 2822 3125 2822 3475 
Q 2822 3834 2567 4026 
Q 2313 4219 1838 4219 
Q 1578 4219 1281 4162 
Q 984 4106 628 3988 
L 628 4550 
Q 988 4650 1302 4700 
Q 1616 4750 1894 4750 
Q 2613 4750 3031 4423 
Q 3450 4097 3450 3541 
Q 3450 3153 3228 2886 
Q 3006 2619 2597 2516 
z
" transform="scale(0.015625)"/>
       </defs>
       <use xlink:href="#DejaVuSans-33"/>
      </g>
     </g>
    </g>
    <g id="xtick_4">
     <g id="line2d_4">
      <g>
       <use xlink:href="#ma9cba658b3" x="285.22017" y="1020.238125" style="stroke: #000000; stroke-width: 0.8"/>
      </g>
     </g>
     <g id="text_4">
      <!-- 4 -->
      <g transform="translate(282.03892 1034.836563)scale(0.1 -0.1)">
       <defs>
        <path id="DejaVuSans-34" d="M 2419 4116 
L 825 1625 
L 2419 1625 
L 2419 4116 
z
M 2253 4666 
L 3047 4666 
L 3047 1625 
L 3713 1625 
L 3713 1100 
L 3047 1100 
L 3047 0 
L 2419 0 
L 2419 1100 
L 313 1100 
L 313 1709 
L 2253 4666 
z
" transform="scale(0.015625)"/>
       </defs>
       <use xlink:href="#DejaVuSans-34"/>
      </g>
     </g>
    </g>
    <g id="xtick_5">
     <g id="line2d_5">
      <g>
       <use xlink:href="#ma9cba658b3" x="337.583807" y="1020.238125" style="stroke: #000000; stroke-width: 0.8"/>
      </g>
     </g>
     <g id="text_5">
      <!-- 5 -->
      <g transform="translate(334.402557 1034.836563)scale(0.1 -0.1)">
       <defs>
        <path id="DejaVuSans-35" d="M 691 4666 
L 3169 4666 
L 3169 4134 
L 1269 4134 
L 1269 2991 
Q 1406 3038 1543 3061 
Q 1681 3084 1819 3084 
Q 2600 3084 3056 2656 
Q 3513 2228 3513 1497 
Q 3513 744 3044 326 
Q 2575 -91 1722 -91 
Q 1428 -91 1123 -41 
Q 819 9 494 109 
L 494 744 
Q 775 591 1075 516 
Q 1375 441 1709 441 
Q 2250 441 2565 725 
Q 2881 1009 2881 1497 
Q 2881 1984 2565 2268 
Q 2250 2553 1709 2553 
Q 1456 2553 1204 2497 
Q 953 2441 691 2322 
L 691 4666 
z
" transform="scale(0.015625)"/>
       </defs>
       <use xlink:href="#DejaVuSans-35"/>
      </g>
     </g>
    </g>
    <g id="xtick_6">
     <g id="line2d_6">
      <g>
       <use xlink:href="#ma9cba658b3" x="389.947443" y="1020.238125" style="stroke: #000000; stroke-width: 0.8"/>
      </g>
     </g>
     <g id="text_6">
      <!-- 6 -->
      <g transform="translate(386.766193 1034.836563)scale(0.1 -0.1)">
       <defs>
        <path id="DejaVuSans-36" d="M 2113 2584 
Q 1688 2584 1439 2293 
Q 1191 2003 1191 1497 
Q 1191 994 1439 701 
Q 1688 409 2113 409 
Q 2538 409 2786 701 
Q 3034 994 3034 1497 
Q 3034 2003 2786 2293 
Q 2538 2584 2113 2584 
z
M 3366 4563 
L 3366 3988 
Q 3128 4100 2886 4159 
Q 2644 4219 2406 4219 
Q 1781 4219 1451 3797 
Q 1122 3375 1075 2522 
Q 1259 2794 1537 2939 
Q 1816 3084 2150 3084 
Q 2853 3084 3261 2657 
Q 3669 2231 3669 1497 
Q 3669 778 3244 343 
Q 2819 -91 2113 -91 
Q 1303 -91 875 529 
Q 447 1150 447 2328 
Q 447 3434 972 4092 
Q 1497 4750 2381 4750 
Q 2619 4750 2861 4703 
Q 3103 4656 3366 4563 
z
" transform="scale(0.015625)"/>
       </defs>
       <use xlink:href="#DejaVuSans-36"/>
      </g>
     </g>
    </g>
    <g id="xtick_7">
     <g id="line2d_7">
      <g>
       <use xlink:href="#ma9cba658b3" x="442.31108" y="1020.238125" style="stroke: #000000; stroke-width: 0.8"/>
      </g>
     </g>
     <g id="text_7">
      <!-- 7 -->
      <g transform="translate(439.12983 1034.836563)scale(0.1 -0.1)">
       <defs>
        <path id="DejaVuSans-37" d="M 525 4666 
L 3525 4666 
L 3525 4397 
L 1831 0 
L 1172 0 
L 2766 4134 
L 525 4134 
L 525 4666 
z
" transform="scale(0.015625)"/>
       </defs>
       <use xlink:href="#DejaVuSans-37"/>
      </g>
     </g>
    </g>
    <g id="xtick_8">
     <g id="line2d_8">
      <g>
       <use xlink:href="#ma9cba658b3" x="494.674716" y="1020.238125" style="stroke: #000000; stroke-width: 0.8"/>
      </g>
     </g>
     <g id="text_8">
      <!-- 8 -->
      <g transform="translate(491.493466 1034.836563)scale(0.1 -0.1)">
       <defs>
        <path id="DejaVuSans-38" d="M 2034 2216 
Q 1584 2216 1326 1975 
Q 1069 1734 1069 1313 
Q 1069 891 1326 650 
Q 1584 409 2034 409 
Q 2484 409 2743 651 
Q 3003 894 3003 1313 
Q 3003 1734 2745 1975 
Q 2488 2216 2034 2216 
z
M 1403 2484 
Q 997 2584 770 2862 
Q 544 3141 544 3541 
Q 544 4100 942 4425 
Q 1341 4750 2034 4750 
Q 2731 4750 3128 4425 
Q 3525 4100 3525 3541 
Q 3525 3141 3298 2862 
Q 3072 2584 2669 2484 
Q 3125 2378 3379 2068 
Q 3634 1759 3634 1313 
Q 3634 634 3220 271 
Q 2806 -91 2034 -91 
Q 1263 -91 848 271 
Q 434 634 434 1313 
Q 434 1759 690 2068 
Q 947 2378 1403 2484 
z
M 1172 3481 
Q 1172 3119 1398 2916 
Q 1625 2713 2034 2713 
Q 2441 2713 2670 2916 
Q 2900 3119 2900 3481 
Q 2900 3844 2670 4047 
Q 2441 4250 2034 4250 
Q 1625 4250 1398 4047 
Q 1172 3844 1172 3481 
z
" transform="scale(0.015625)"/>
       </defs>
       <use xlink:href="#DejaVuSans-38"/>
      </g>
     </g>
    </g>
    <g id="xtick_9">
     <g id="line2d_9">
      <g>
       <use xlink:href="#ma9cba658b3" x="547.038352" y="1020.238125" style="stroke: #000000; stroke-width: 0.8"/>
      </g>
     </g>
     <g id="text_9">
      <!-- 9 -->
      <g transform="translate(543.857102 1034.836563)scale(0.1 -0.1)">
       <defs>
        <path id="DejaVuSans-39" d="M 703 97 
L 703 672 
Q 941 559 1184 500 
Q 1428 441 1663 441 
Q 2288 441 2617 861 
Q 2947 1281 2994 2138 
Q 2813 1869 2534 1725 
Q 2256 1581 1919 1581 
Q 1219 1581 811 2004 
Q 403 2428 403 3163 
Q 403 3881 828 4315 
Q 1253 4750 1959 4750 
Q 2769 4750 3195 4129 
Q 3622 3509 3622 2328 
Q 3622 1225 3098 567 
Q 2575 -91 1691 -91 
Q 1453 -91 1209 -44 
Q 966 3 703 97 
z
M 1959 2075 
Q 2384 2075 2632 2365 
Q 2881 2656 2881 3163 
Q 2881 3666 2632 3958 
Q 2384 4250 1959 4250 
Q 1534 4250 1286 3958 
Q 1038 3666 1038 3163 
Q 1038 2656 1286 2365 
Q 1534 2075 1959 2075 
z
" transform="scale(0.015625)"/>
       </defs>
       <use xlink:href="#DejaVuSans-39"/>
      </g>
     </g>
    </g>
    <g id="xtick_10">
     <g id="line2d_10">
      <g>
       <use xlink:href="#ma9cba658b3" x="599.401989" y="1020.238125" style="stroke: #000000; stroke-width: 0.8"/>
      </g>
     </g>
     <g id="text_10">
      <!-- 10 -->
      <g transform="translate(593.039489 1034.836563)scale(0.1 -0.1)">
       <defs>
        <path id="DejaVuSans-30" d="M 2034 4250 
Q 1547 4250 1301 3770 
Q 1056 3291 1056 2328 
Q 1056 1369 1301 889 
Q 1547 409 2034 409 
Q 2525 409 2770 889 
Q 3016 1369 3016 2328 
Q 3016 3291 2770 3770 
Q 2525 4250 2034 4250 
z
M 2034 4750 
Q 2819 4750 3233 4129 
Q 3647 3509 3647 2328 
Q 3647 1150 3233 529 
Q 2819 -91 2034 -91 
Q 1250 -91 836 529 
Q 422 1150 422 2328 
Q 422 3509 836 4129 
Q 1250 4750 2034 4750 
z
" transform="scale(0.015625)"/>
       </defs>
       <use xlink:href="#DejaVuSans-31"/>
       <use xlink:href="#DejaVuSans-30" x="63.623047"/>
      </g>
     </g>
    </g>
    <g id="xtick_11">
     <g id="line2d_11">
      <g>
       <use xlink:href="#ma9cba658b3" x="651.765625" y="1020.238125" style="stroke: #000000; stroke-width: 0.8"/>
      </g>
     </g>
     <g id="text_11">
      <!-- 11 -->
      <g transform="translate(645.403125 1034.836563)scale(0.1 -0.1)">
       <use xlink:href="#DejaVuSans-31"/>
       <use xlink:href="#DejaVuSans-31" x="63.623047"/>
      </g>
     </g>
    </g>
    <g id="xtick_12">
     <g id="line2d_12">
      <g>
       <use xlink:href="#ma9cba658b3" x="704.129261" y="1020.238125" style="stroke: #000000; stroke-width: 0.8"/>
      </g>
     </g>
     <g id="text_12">
      <!-- 12 -->
      <g transform="translate(697.766761 1034.836563)scale(0.1 -0.1)">
       <use xlink:href="#DejaVuSans-31"/>
       <use xlink:href="#DejaVuSans-32" x="63.623047"/>
      </g>
     </g>
    </g>
    <g id="xtick_13">
     <g id="line2d_13">
      <g>
       <use xlink:href="#ma9cba658b3" x="756.492898" y="1020.238125" style="stroke: #000000; stroke-width: 0.8"/>
      </g>
     </g>
     <g id="text_13">
      <!-- 13 -->
      <g transform="translate(750.130398 1034.836563)scale(0.1 -0.1)">
       <use xlink:href="#DejaVuSans-31"/>
       <use xlink:href="#DejaVuSans-33" x="63.623047"/>
      </g>
     </g>
    </g>
    <g id="xtick_14">
     <g id="line2d_14">
      <g>
       <use xlink:href="#ma9cba658b3" x="808.856534" y="1020.238125" style="stroke: #000000; stroke-width: 0.8"/>
      </g>
     </g>
     <g id="text_14">
      <!-- 14 -->
      <g transform="translate(802.494034 1034.836563)scale(0.1 -0.1)">
       <use xlink:href="#DejaVuSans-31"/>
       <use xlink:href="#DejaVuSans-34" x="63.623047"/>
      </g>
     </g>
    </g>
    <g id="xtick_15">
     <g id="line2d_15">
      <g>
       <use xlink:href="#ma9cba658b3" x="861.22017" y="1020.238125" style="stroke: #000000; stroke-width: 0.8"/>
      </g>
     </g>
     <g id="text_15">
      <!-- 15 -->
      <g transform="translate(854.85767 1034.836563)scale(0.1 -0.1)">
       <use xlink:href="#DejaVuSans-31"/>
       <use xlink:href="#DejaVuSans-35" x="63.623047"/>
      </g>
     </g>
    </g>
    <g id="xtick_16">
     <g id="line2d_16">
      <g>
       <use xlink:href="#ma9cba658b3" x="913.583807" y="1020.238125" style="stroke: #000000; stroke-width: 0.8"/>
      </g>
     </g>
     <g id="text_16">
      <!-- 16 -->
      <g transform="translate(907.221307 1034.836563)scale(0.1 -0.1)">
       <use xlink:href="#DejaVuSans-31"/>
       <use xlink:href="#DejaVuSans-36" x="63.623047"/>
      </g>
     </g>
    </g>
    <g id="xtick_17">
     <g id="line2d_17">
      <g>
       <use xlink:href="#ma9cba658b3" x="965.947443" y="1020.238125" style="stroke: #000000; stroke-width: 0.8"/>
      </g>
     </g>
     <g id="text_17">
      <!-- 17 -->
      <g transform="translate(959.584943 1034.836563)scale(0.1 -0.1)">
       <use xlink:href="#DejaVuSans-31"/>
       <use xlink:href="#DejaVuSans-37" x="63.623047"/>
      </g>
     </g>
    </g>
    <g id="xtick_18">
     <g id="line2d_18">
      <g>
       <use xlink:href="#ma9cba658b3" x="1018.31108" y="1020.238125" style="stroke: #000000; stroke-width: 0.8"/>
      </g>
     </g>
     <g id="text_18">
      <!-- 18 -->
      <g transform="translate(1011.94858 1034.836563)scale(0.1 -0.1)">
       <use xlink:href="#DejaVuSans-31"/>
       <use xlink:href="#DejaVuSans-38" x="63.623047"/>
      </g>
     </g>
    </g>
    <g id="xtick_19">
     <g id="line2d_19">
      <g>
       <use xlink:href="#ma9cba658b3" x="1070.674716" y="1020.238125" style="stroke: #000000; stroke-width: 0.8"/>
      </g>
     </g>
     <g id="text_19">
      <!-- 19 -->
      <g transform="translate(1064.312216 1034.836563)scale(0.1 -0.1)">
       <use xlink:href="#DejaVuSans-31"/>
       <use xlink:href="#DejaVuSans-39" x="63.623047"/>
      </g>
     </g>
    </g>
    <g id="xtick_20">
     <g id="line2d_20">
      <g>
       <use xlink:href="#ma9cba658b3" x="1123.038352" y="1020.238125" style="stroke: #000000; stroke-width: 0.8"/>
      </g>
     </g>
     <g id="text_20">
      <!-- 20 -->
      <g transform="translate(1116.675852 1034.836563)scale(0.1 -0.1)">
       <use xlink:href="#DejaVuSans-32"/>
       <use xlink:href="#DejaVuSans-30" x="63.623047"/>
      </g>
     </g>
    </g>
    <g id="xtick_21">
     <g id="line2d_21">
      <g>
       <use xlink:href="#ma9cba658b3" x="1175.401989" y="1020.238125" style="stroke: #000000; stroke-width: 0.8"/>
      </g>
     </g>
     <g id="text_21">
      <!-- 21 -->
      <g transform="translate(1169.039489 1034.836563)scale(0.1 -0.1)">
       <use xlink:href="#DejaVuSans-32"/>
       <use xlink:href="#DejaVuSans-31" x="63.623047"/>
      </g>
     </g>
    </g>
    <g id="xtick_22">
     <g id="line2d_22">
      <g>
       <use xlink:href="#ma9cba658b3" x="1227.765625" y="1020.238125" style="stroke: #000000; stroke-width: 0.8"/>
      </g>
     </g>
     <g id="text_22">
      <!-- 22 -->
      <g transform="translate(1221.403125 1034.836563)scale(0.1 -0.1)">
       <use xlink:href="#DejaVuSans-32"/>
       <use xlink:href="#DejaVuSans-32" x="63.623047"/>
      </g>
     </g>
    </g>
    <g id="xtick_23">
     <g id="line2d_23">
      <g>
       <use xlink:href="#ma9cba658b3" x="1280.129261" y="1020.238125" style="stroke: #000000; stroke-width: 0.8"/>
      </g>
     </g>
     <g id="text_23">
      <!-- 23 -->
      <g transform="translate(1273.766761 1034.836563)scale(0.1 -0.1)">
       <use xlink:href="#DejaVuSans-32"/>
       <use xlink:href="#DejaVuSans-33" x="63.623047"/>
      </g>
     </g>
    </g>
    <g id="xtick_24">
     <g id="line2d_24">
      <g>
       <use xlink:href="#ma9cba658b3" x="1332.492898" y="1020.238125" style="stroke: #000000; stroke-width: 0.8"/>
      </g>
     </g>
     <g id="text_24">
      <!-- 24 -->
      <g transform="translate(1326.130398 1034.836563)scale(0.1 -0.1)">
       <use xlink:href="#DejaVuSans-32"/>
       <use xlink:href="#DejaVuSans-34" x="63.623047"/>
      </g>
     </g>
    </g>
    <g id="xtick_25">
     <g id="line2d_25">
      <g>
       <use xlink:href="#ma9cba658b3" x="1384.856534" y="1020.238125" style="stroke: #000000; stroke-width: 0.8"/>
      </g>
     </g>
     <g id="text_25">
      <!-- 25 -->
      <g transform="translate(1378.494034 1034.836563)scale(0.1 -0.1)">
       <use xlink:href="#DejaVuSans-32"/>
       <use xlink:href="#DejaVuSans-35" x="63.623047"/>
      </g>
     </g>
    </g>
    <g id="xtick_26">
     <g id="line2d_26">
      <g>
       <use xlink:href="#ma9cba658b3" x="1437.22017" y="1020.238125" style="stroke: #000000; stroke-width: 0.8"/>
      </g>
     </g>
     <g id="text_26">
      <!-- 26 -->
      <g transform="translate(1430.85767 1034.836563)scale(0.1 -0.1)">
       <use xlink:href="#DejaVuSans-32"/>
       <use xlink:href="#DejaVuSans-36" x="63.623047"/>
      </g>
     </g>
    </g>
    <g id="xtick_27">
     <g id="line2d_27">
      <g>
       <use xlink:href="#ma9cba658b3" x="1489.583807" y="1020.238125" style="stroke: #000000; stroke-width: 0.8"/>
      </g>
     </g>
     <g id="text_27">
      <!-- 27 -->
      <g transform="translate(1483.221307 1034.836563)scale(0.1 -0.1)">
       <use xlink:href="#DejaVuSans-32"/>
       <use xlink:href="#DejaVuSans-37" x="63.623047"/>
      </g>
     </g>
    </g>
    <g id="xtick_28">
     <g id="line2d_28">
      <g>
       <use xlink:href="#ma9cba658b3" x="1541.947443" y="1020.238125" style="stroke: #000000; stroke-width: 0.8"/>
      </g>
     </g>
     <g id="text_28">
      <!-- 28 -->
      <g transform="translate(1535.584943 1034.836563)scale(0.1 -0.1)">
       <use xlink:href="#DejaVuSans-32"/>
       <use xlink:href="#DejaVuSans-38" x="63.623047"/>
      </g>
     </g>
    </g>
    <g id="xtick_29">
     <g id="line2d_29">
      <g>
       <use xlink:href="#ma9cba658b3" x="1594.31108" y="1020.238125" style="stroke: #000000; stroke-width: 0.8"/>
      </g>
     </g>
     <g id="text_29">
      <!-- 29 -->
      <g transform="translate(1587.94858 1034.836563)scale(0.1 -0.1)">
       <use xlink:href="#DejaVuSans-32"/>
       <use xlink:href="#DejaVuSans-39" x="63.623047"/>
      </g>
     </g>
    </g>
    <g id="xtick_30">
     <g id="line2d_30">
      <g>
       <use xlink:href="#ma9cba658b3" x="1646.674716" y="1020.238125" style="stroke: #000000; stroke-width: 0.8"/>
      </g>
     </g>
     <g id="text_30">
      <!-- 30 -->
      <g transform="translate(1640.312216 1034.836563)scale(0.1 -0.1)">
       <use xlink:href="#DejaVuSans-33"/>
       <use xlink:href="#DejaVuSans-30" x="63.623047"/>
      </g>
     </g>
    </g>
    <g id="xtick_31">
     <g id="line2d_31">
      <g>
       <use xlink:href="#ma9cba658b3" x="1699.038352" y="1020.238125" style="stroke: #000000; stroke-width: 0.8"/>
      </g>
     </g>
     <g id="text_31">
      <!-- 31 -->
      <g transform="translate(1692.675852 1034.836563)scale(0.1 -0.1)">
       <use xlink:href="#DejaVuSans-33"/>
       <use xlink:href="#DejaVuSans-31" x="63.623047"/>
      </g>
     </g>
    </g>
    <g id="xtick_32">
     <g id="line2d_32">
      <g>
       <use xlink:href="#ma9cba658b3" x="1751.401989" y="1020.238125" style="stroke: #000000; stroke-width: 0.8"/>
      </g>
     </g>
     <g id="text_32">
      <!-- 32 -->
      <g transform="translate(1745.039489 1034.836563)scale(0.1 -0.1)">
       <use xlink:href="#DejaVuSans-33"/>
       <use xlink:href="#DejaVuSans-32" x="63.623047"/>
      </g>
     </g>
    </g>
    <g id="text_33">
     <!-- threads -->
     <g transform="translate(920.774219 1048.514688)scale(0.1 -0.1)">
      <defs>
       <path id="DejaVuSans-74" d="M 1172 4494 
L 1172 3500 
L 2356 3500 
L 2356 3053 
L 1172 3053 
L 1172 1153 
Q 1172 725 1289 603 
Q 1406 481 1766 481 
L 2356 481 
L 2356 0 
L 1766 0 
Q 1100 0 847 248 
Q 594 497 594 1153 
L 594 3053 
L 172 3053 
L 172 3500 
L 594 3500 
L 594 4494 
L 1172 4494 
z
" transform="scale(0.015625)"/>
       <path id="DejaVuSans-68" d="M 3513 2113 
L 3513 0 
L 2938 0 
L 2938 2094 
Q 2938 2591 2744 2837 
Q 2550 3084 2163 3084 
Q 1697 3084 1428 2787 
Q 1159 2491 1159 1978 
L 1159 0 
L 581 0 
L 581 4863 
L 1159 4863 
L 1159 2956 
Q 1366 3272 1645 3428 
Q 1925 3584 2291 3584 
Q 2894 3584 3203 3211 
Q 3513 2838 3513 2113 
z
" transform="scale(0.015625)"/>
       <path id="DejaVuSans-72" d="M 2631 2963 
Q 2534 3019 2420 3045 
Q 2306 3072 2169 3072 
Q 1681 3072 1420 2755 
Q 1159 2438 1159 1844 
L 1159 0 
L 581 0 
L 581 3500 
L 1159 3500 
L 1159 2956 
Q 1341 3275 1631 3429 
Q 1922 3584 2338 3584 
Q 2397 3584 2469 3576 
Q 2541 3569 2628 3553 
L 2631 2963 
z
" transform="scale(0.015625)"/>
       <path id="DejaVuSans-65" d="M 3597 1894 
L 3597 1613 
L 953 1613 
Q 991 1019 1311 708 
Q 1631 397 2203 397 
Q 2534 397 2845 478 
Q 3156 559 3463 722 
L 3463 178 
Q 3153 47 2828 -22 
Q 2503 -91 2169 -91 
Q 1331 -91 842 396 
Q 353 884 353 1716 
Q 353 2575 817 3079 
Q 1281 3584 2069 3584 
Q 2775 3584 3186 3129 
Q 3597 2675 3597 1894 
z
M 3022 2063 
Q 3016 2534 2758 2815 
Q 2500 3097 2075 3097 
Q 1594 3097 1305 2825 
Q 1016 2553 972 2059 
L 3022 2063 
z
" transform="scale(0.015625)"/>
       <path id="DejaVuSans-61" d="M 2194 1759 
Q 1497 1759 1228 1600 
Q 959 1441 959 1056 
Q 959 750 1161 570 
Q 1363 391 1709 391 
Q 2188 391 2477 730 
Q 2766 1069 2766 1631 
L 2766 1759 
L 2194 1759 
z
M 3341 1997 
L 3341 0 
L 2766 0 
L 2766 531 
Q 2569 213 2275 61 
Q 1981 -91 1556 -91 
Q 1019 -91 701 211 
Q 384 513 384 1019 
Q 384 1609 779 1909 
Q 1175 2209 1959 2209 
L 2766 2209 
L 2766 2266 
Q 2766 2663 2505 2880 
Q 2244 3097 1772 3097 
Q 1472 3097 1187 3025 
Q 903 2953 641 2809 
L 641 3341 
Q 956 3463 1253 3523 
Q 1550 3584 1831 3584 
Q 2591 3584 2966 3190 
Q 3341 2797 3341 1997 
z
" transform="scale(0.015625)"/>
       <path id="DejaVuSans-64" d="M 2906 2969 
L 2906 4863 
L 3481 4863 
L 3481 0 
L 2906 0 
L 2906 525 
Q 2725 213 2448 61 
Q 2172 -91 1784 -91 
Q 1150 -91 751 415 
Q 353 922 353 1747 
Q 353 2572 751 3078 
Q 1150 3584 1784 3584 
Q 2172 3584 2448 3432 
Q 2725 3281 2906 2969 
z
M 947 1747 
Q 947 1113 1208 752 
Q 1469 391 1925 391 
Q 2381 391 2643 752 
Q 2906 1113 2906 1747 
Q 2906 2381 2643 2742 
Q 2381 3103 1925 3103 
Q 1469 3103 1208 2742 
Q 947 2381 947 1747 
z
" transform="scale(0.015625)"/>
       <path id="DejaVuSans-73" d="M 2834 3397 
L 2834 2853 
Q 2591 2978 2328 3040 
Q 2066 3103 1784 3103 
Q 1356 3103 1142 2972 
Q 928 2841 928 2578 
Q 928 2378 1081 2264 
Q 1234 2150 1697 2047 
L 1894 2003 
Q 2506 1872 2764 1633 
Q 3022 1394 3022 966 
Q 3022 478 2636 193 
Q 2250 -91 1575 -91 
Q 1294 -91 989 -36 
Q 684 19 347 128 
L 347 722 
Q 666 556 975 473 
Q 1284 391 1588 391 
Q 1994 391 2212 530 
Q 2431 669 2431 922 
Q 2431 1156 2273 1281 
Q 2116 1406 1581 1522 
L 1381 1569 
Q 847 1681 609 1914 
Q 372 2147 372 2553 
Q 372 3047 722 3315 
Q 1072 3584 1716 3584 
Q 2034 3584 2315 3537 
Q 2597 3491 2834 3397 
z
" transform="scale(0.015625)"/>
      </defs>
      <use xlink:href="#DejaVuSans-74"/>
      <use xlink:href="#DejaVuSans-68" x="39.208984"/>
      <use xlink:href="#DejaVuSans-72" x="102.587891"/>
      <use xlink:href="#DejaVuSans-65" x="141.451172"/>
      <use xlink:href="#DejaVuSans-61" x="202.974609"/>
      <use xlink:href="#DejaVuSans-64" x="264.253906"/>
      <use xlink:href="#DejaVuSans-73" x="327.730469"/>
     </g>
    </g>
   </g>
   <g id="matplotlib.axis_2">
    <g id="ytick_1">
     <g id="line2d_33">
      <defs>
       <path id="m1b3140adae" d="M 0 0 
L -3.5 0 
" style="stroke: #000000; stroke-width: 0.8"/>
      </defs>
      <g>
       <use xlink:href="#m1b3140adae" x="46.965625" y="975.309132" style="stroke: #000000; stroke-width: 0.8"/>
      </g>
     </g>
     <g id="text_34">
      <!-- 0 -->
      <g transform="translate(33.603125 979.108351)scale(0.1 -0.1)">
       <use xlink:href="#DejaVuSans-30"/>
      </g>
     </g>
    </g>
    <g id="ytick_2">
     <g id="line2d_34">
      <g>
       <use xlink:href="#m1b3140adae" x="46.965625" y="822.028813" style="stroke: #000000; stroke-width: 0.8"/>
      </g>
     </g>
     <g id="text_35">
      <!-- 50 -->
      <g transform="translate(27.240625 825.828032)scale(0.1 -0.1)">
       <use xlink:href="#DejaVuSans-35"/>
       <use xlink:href="#DejaVuSans-30" x="63.623047"/>
      </g>
     </g>
    </g>
    <g id="ytick_3">
     <g id="line2d_35">
      <g>
       <use xlink:href="#m1b3140adae" x="46.965625" y="668.748494" style="stroke: #000000; stroke-width: 0.8"/>
      </g>
     </g>
     <g id="text_36">
      <!-- 100 -->
      <g transform="translate(20.878125 672.547713)scale(0.1 -0.1)">
       <use xlink:href="#DejaVuSans-31"/>
       <use xlink:href="#DejaVuSans-30" x="63.623047"/>
       <use xlink:href="#DejaVuSans-30" x="127.246094"/>
      </g>
     </g>
    </g>
    <g id="ytick_4">
     <g id="line2d_36">
      <g>
       <use xlink:href="#m1b3140adae" x="46.965625" y="515.468175" style="stroke: #000000; stroke-width: 0.8"/>
      </g>
     </g>
     <g id="text_37">
      <!-- 150 -->
      <g transform="translate(20.878125 519.267394)scale(0.1 -0.1)">
       <use xlink:href="#DejaVuSans-31"/>
       <use xlink:href="#DejaVuSans-35" x="63.623047"/>
       <use xlink:href="#DejaVuSans-30" x="127.246094"/>
      </g>
     </g>
    </g>
    <g id="ytick_5">
     <g id="line2d_37">
      <g>
       <use xlink:href="#m1b3140adae" x="46.965625" y="362.187856" style="stroke: #000000; stroke-width: 0.8"/>
      </g>
     </g>
     <g id="text_38">
      <!-- 200 -->
      <g transform="translate(20.878125 365.987075)scale(0.1 -0.1)">
       <use xlink:href="#DejaVuSans-32"/>
       <use xlink:href="#DejaVuSans-30" x="63.623047"/>
       <use xlink:href="#DejaVuSans-30" x="127.246094"/>
      </g>
     </g>
    </g>
    <g id="ytick_6">
     <g id="line2d_38">
      <g>
       <use xlink:href="#m1b3140adae" x="46.965625" y="208.907537" style="stroke: #000000; stroke-width: 0.8"/>
      </g>
     </g>
     <g id="text_39">
      <!-- 250 -->
      <g transform="translate(20.878125 212.706756)scale(0.1 -0.1)">
       <use xlink:href="#DejaVuSans-32"/>
       <use xlink:href="#DejaVuSans-35" x="63.623047"/>
       <use xlink:href="#DejaVuSans-30" x="127.246094"/>
      </g>
     </g>
    </g>
    <g id="ytick_7">
     <g id="line2d_39">
      <g>
       <use xlink:href="#m1b3140adae" x="46.965625" y="55.627218" style="stroke: #000000; stroke-width: 0.8"/>
      </g>
     </g>
     <g id="text_40">
      <!-- 300 -->
      <g transform="translate(20.878125 59.426437)scale(0.1 -0.1)">
       <use xlink:href="#DejaVuSans-33"/>
       <use xlink:href="#DejaVuSans-30" x="63.623047"/>
       <use xlink:href="#DejaVuSans-30" x="127.246094"/>
      </g>
     </g>
    </g>
    <g id="text_41">
     <!-- seconds -->
     <g transform="translate(14.798437 541.715625)rotate(-90)scale(0.1 -0.1)">
      <defs>
       <path id="DejaVuSans-63" d="M 3122 3366 
L 3122 2828 
Q 2878 2963 2633 3030 
Q 2388 3097 2138 3097 
Q 1578 3097 1268 2742 
Q 959 2388 959 1747 
Q 959 1106 1268 751 
Q 1578 397 2138 397 
Q 2388 397 2633 464 
Q 2878 531 3122 666 
L 3122 134 
Q 2881 22 2623 -34 
Q 2366 -91 2075 -91 
Q 1284 -91 818 406 
Q 353 903 353 1747 
Q 353 2603 823 3093 
Q 1294 3584 2113 3584 
Q 2378 3584 2631 3529 
Q 2884 3475 3122 3366 
z
" transform="scale(0.015625)"/>
       <path id="DejaVuSans-6f" d="M 1959 3097 
Q 1497 3097 1228 2736 
Q 959 2375 959 1747 
Q 959 1119 1226 758 
Q 1494 397 1959 397 
Q 2419 397 2687 759 
Q 2956 1122 2956 1747 
Q 2956 2369 2687 2733 
Q 2419 3097 1959 3097 
z
M 1959 3584 
Q 2709 3584 3137 3096 
Q 3566 2609 3566 1747 
Q 3566 888 3137 398 
Q 2709 -91 1959 -91 
Q 1206 -91 779 398 
Q 353 888 353 1747 
Q 353 2609 779 3096 
Q 1206 3584 1959 3584 
z
" transform="scale(0.015625)"/>
       <path id="DejaVuSans-6e" d="M 3513 2113 
L 3513 0 
L 2938 0 
L 2938 2094 
Q 2938 2591 2744 2837 
Q 2550 3084 2163 3084 
Q 1697 3084 1428 2787 
Q 1159 2491 1159 1978 
L 1159 0 
L 581 0 
L 581 3500 
L 1159 3500 
L 1159 2956 
Q 1366 3272 1645 3428 
Q 1925 3584 2291 3584 
Q 2894 3584 3203 3211 
Q 3513 2838 3513 2113 
z
" transform="scale(0.015625)"/>
      </defs>
      <use xlink:href="#DejaVuSans-73"/>
      <use xlink:href="#DejaVuSans-65" x="52.099609"/>
      <use xlink:href="#DejaVuSans-63" x="113.623047"/>
      <use xlink:href="#DejaVuSans-6f" x="168.603516"/>
      <use xlink:href="#DejaVuSans-6e" x="229.785156"/>
      <use xlink:href="#DejaVuSans-64" x="293.164062"/>
      <use xlink:href="#DejaVuSans-73" x="356.640625"/>
     </g>
    </g>
   </g>
   <g id="line2d_40">
    <path d="M 128.129261 973.024566 
L 180.492898 974.154008 
L 232.856534 974.512895 
L 285.22017 974.716626 
L 337.583807 974.551747 
L 389.947443 974.514011 
L 442.31108 974.672495 
L 494.674716 974.003813 
L 547.038352 974.320766 
L 599.401989 973.084853 
L 651.765625 974.057902 
L 704.129261 974.26891 
L 756.492898 974.156929 
L 808.856534 974.603556 
L 861.22017 974.1905 
L 913.583807 973.737146 
L 965.947443 974.693999 
L 1018.31108 973.817599 
L 1070.674716 973.214287 
L 1123.038352 974.726918 
L 1175.401989 973.575282 
L 1227.765625 974.257833 
L 1280.129261 974.402573 
L 1332.492898 974.878125 
L 1384.856534 974.631834 
L 1437.22017 974.287606 
L 1489.583807 974.304976 
L 1541.947443 974.138722 
L 1594.31108 974.271752 
L 1646.674716 974.723137 
L 1699.038352 974.437669 
L 1751.401989 974.307035 
" clip-path="url(#pa638393af2)" style="fill: none; stroke: #1f77b4; stroke-width: 1.5; stroke-linecap: square"/>
    <defs>
     <path id="m38e9c4af7b" d="M 0 3 
C 0.795609 3 1.55874 2.683901 2.12132 2.12132 
C 2.683901 1.55874 3 0.795609 3 0 
C 3 -0.795609 2.683901 -1.55874 2.12132 -2.12132 
C 1.55874 -2.683901 0.795609 -3 0 -3 
C -0.795609 -3 -1.55874 -2.683901 -2.12132 -2.12132 
C -2.683901 -1.55874 -3 -0.795609 -3 0 
C -3 0.795609 -2.683901 1.55874 -2.12132 2.12132 
C -1.55874 2.683901 -0.795609 3 0 3 
z
" style="stroke: #1f77b4"/>
    </defs>
    <g clip-path="url(#pa638393af2)">
     <use xlink:href="#m38e9c4af7b" x="128.129261" y="973.024566" style="fill: #1f77b4; stroke: #1f77b4"/>
     <use xlink:href="#m38e9c4af7b" x="180.492898" y="974.154008" style="fill: #1f77b4; stroke: #1f77b4"/>
     <use xlink:href="#m38e9c4af7b" x="232.856534" y="974.512895" style="fill: #1f77b4; stroke: #1f77b4"/>
     <use xlink:href="#m38e9c4af7b" x="285.22017" y="974.716626" style="fill: #1f77b4; stroke: #1f77b4"/>
     <use xlink:href="#m38e9c4af7b" x="337.583807" y="974.551747" style="fill: #1f77b4; stroke: #1f77b4"/>
     <use xlink:href="#m38e9c4af7b" x="389.947443" y="974.514011" style="fill: #1f77b4; stroke: #1f77b4"/>
     <use xlink:href="#m38e9c4af7b" x="442.31108" y="974.672495" style="fill: #1f77b4; stroke: #1f77b4"/>
     <use xlink:href="#m38e9c4af7b" x="494.674716" y="974.003813" style="fill: #1f77b4; stroke: #1f77b4"/>
     <use xlink:href="#m38e9c4af7b" x="547.038352" y="974.320766" style="fill: #1f77b4; stroke: #1f77b4"/>
     <use xlink:href="#m38e9c4af7b" x="599.401989" y="973.084853" style="fill: #1f77b4; stroke: #1f77b4"/>
     <use xlink:href="#m38e9c4af7b" x="651.765625" y="974.057902" style="fill: #1f77b4; stroke: #1f77b4"/>
     <use xlink:href="#m38e9c4af7b" x="704.129261" y="974.26891" style="fill: #1f77b4; stroke: #1f77b4"/>
     <use xlink:href="#m38e9c4af7b" x="756.492898" y="974.156929" style="fill: #1f77b4; stroke: #1f77b4"/>
     <use xlink:href="#m38e9c4af7b" x="808.856534" y="974.603556" style="fill: #1f77b4; stroke: #1f77b4"/>
     <use xlink:href="#m38e9c4af7b" x="861.22017" y="974.1905" style="fill: #1f77b4; stroke: #1f77b4"/>
     <use xlink:href="#m38e9c4af7b" x="913.583807" y="973.737146" style="fill: #1f77b4; stroke: #1f77b4"/>
     <use xlink:href="#m38e9c4af7b" x="965.947443" y="974.693999" style="fill: #1f77b4; stroke: #1f77b4"/>
     <use xlink:href="#m38e9c4af7b" x="1018.31108" y="973.817599" style="fill: #1f77b4; stroke: #1f77b4"/>
     <use xlink:href="#m38e9c4af7b" x="1070.674716" y="973.214287" style="fill: #1f77b4; stroke: #1f77b4"/>
     <use xlink:href="#m38e9c4af7b" x="1123.038352" y="974.726918" style="fill: #1f77b4; stroke: #1f77b4"/>
     <use xlink:href="#m38e9c4af7b" x="1175.401989" y="973.575282" style="fill: #1f77b4; stroke: #1f77b4"/>
     <use xlink:href="#m38e9c4af7b" x="1227.765625" y="974.257833" style="fill: #1f77b4; stroke: #1f77b4"/>
     <use xlink:href="#m38e9c4af7b" x="1280.129261" y="974.402573" style="fill: #1f77b4; stroke: #1f77b4"/>
     <use xlink:href="#m38e9c4af7b" x="1332.492898" y="974.878125" style="fill: #1f77b4; stroke: #1f77b4"/>
     <use xlink:href="#m38e9c4af7b" x="1384.856534" y="974.631834" style="fill: #1f77b4; stroke: #1f77b4"/>
     <use xlink:href="#m38e9c4af7b" x="1437.22017" y="974.287606" style="fill: #1f77b4; stroke: #1f77b4"/>
     <use xlink:href="#m38e9c4af7b" x="1489.583807" y="974.304976" style="fill: #1f77b4; stroke: #1f77b4"/>
     <use xlink:href="#m38e9c4af7b" x="1541.947443" y="974.138722" style="fill: #1f77b4; stroke: #1f77b4"/>
     <use xlink:href="#m38e9c4af7b" x="1594.31108" y="974.271752" style="fill: #1f77b4; stroke: #1f77b4"/>
     <use xlink:href="#m38e9c4af7b" x="1646.674716" y="974.723137" style="fill: #1f77b4; stroke: #1f77b4"/>
     <use xlink:href="#m38e9c4af7b" x="1699.038352" y="974.437669" style="fill: #1f77b4; stroke: #1f77b4"/>
     <use xlink:href="#m38e9c4af7b" x="1751.401989" y="974.307035" style="fill: #1f77b4; stroke: #1f77b4"/>
    </g>
   </g>
   <g id="line2d_41">
    <path d="M 128.129261 966.218575 
L 180.492898 970.751046 
L 232.856534 972.170908 
L 285.22017 972.709418 
L 337.583807 973.244738 
L 389.947443 973.237996 
L 442.31108 973.545523 
L 494.674716 973.642247 
L 547.038352 973.212173 
L 599.401989 972.941639 
L 651.765625 973.11636 
L 704.129261 972.615154 
L 756.492898 973.417252 
L 808.856534 973.928407 
L 861.22017 973.011595 
L 913.583807 972.381074 
L 965.947443 973.427315 
L 1018.31108 973.428815 
L 1070.674716 973.412539 
L 1123.038352 973.221355 
L 1175.401989 972.064251 
L 1227.765625 973.882096 
L 1280.129261 972.999357 
L 1332.492898 973.976436 
L 1384.856534 972.450043 
L 1437.22017 973.386084 
L 1489.583807 973.741698 
L 1541.947443 973.58294 
L 1594.31108 972.838744 
L 1646.674716 972.439091 
L 1699.038352 973.950445 
L 1751.401989 973.693645 
" clip-path="url(#pa638393af2)" style="fill: none; stroke: #ff7f0e; stroke-width: 1.5; stroke-linecap: square"/>
    <defs>
     <path id="m5f3d85560d" d="M 0 3 
C 0.795609 3 1.55874 2.683901 2.12132 2.12132 
C 2.683901 1.55874 3 0.795609 3 0 
C 3 -0.795609 2.683901 -1.55874 2.12132 -2.12132 
C 1.55874 -2.683901 0.795609 -3 0 -3 
C -0.795609 -3 -1.55874 -2.683901 -2.12132 -2.12132 
C -2.683901 -1.55874 -3 -0.795609 -3 0 
C -3 0.795609 -2.683901 1.55874 -2.12132 2.12132 
C -1.55874 2.683901 -0.795609 3 0 3 
z
" style="stroke: #ff7f0e"/>
    </defs>
    <g clip-path="url(#pa638393af2)">
     <use xlink:href="#m5f3d85560d" x="128.129261" y="966.218575" style="fill: #ff7f0e; stroke: #ff7f0e"/>
     <use xlink:href="#m5f3d85560d" x="180.492898" y="970.751046" style="fill: #ff7f0e; stroke: #ff7f0e"/>
     <use xlink:href="#m5f3d85560d" x="232.856534" y="972.170908" style="fill: #ff7f0e; stroke: #ff7f0e"/>
     <use xlink:href="#m5f3d85560d" x="285.22017" y="972.709418" style="fill: #ff7f0e; stroke: #ff7f0e"/>
     <use xlink:href="#m5f3d85560d" x="337.583807" y="973.244738" style="fill: #ff7f0e; stroke: #ff7f0e"/>
     <use xlink:href="#m5f3d85560d" x="389.947443" y="973.237996" style="fill: #ff7f0e; stroke: #ff7f0e"/>
     <use xlink:href="#m5f3d85560d" x="442.31108" y="973.545523" style="fill: #ff7f0e; stroke: #ff7f0e"/>
     <use xlink:href="#m5f3d85560d" x="494.674716" y="973.642247" style="fill: #ff7f0e; stroke: #ff7f0e"/>
     <use xlink:href="#m5f3d85560d" x="547.038352" y="973.212173" style="fill: #ff7f0e; stroke: #ff7f0e"/>
     <use xlink:href="#m5f3d85560d" x="599.401989" y="972.941639" style="fill: #ff7f0e; stroke: #ff7f0e"/>
     <use xlink:href="#m5f3d85560d" x="651.765625" y="973.11636" style="fill: #ff7f0e; stroke: #ff7f0e"/>
     <use xlink:href="#m5f3d85560d" x="704.129261" y="972.615154" style="fill: #ff7f0e; stroke: #ff7f0e"/>
     <use xlink:href="#m5f3d85560d" x="756.492898" y="973.417252" style="fill: #ff7f0e; stroke: #ff7f0e"/>
     <use xlink:href="#m5f3d85560d" x="808.856534" y="973.928407" style="fill: #ff7f0e; stroke: #ff7f0e"/>
     <use xlink:href="#m5f3d85560d" x="861.22017" y="973.011595" style="fill: #ff7f0e; stroke: #ff7f0e"/>
     <use xlink:href="#m5f3d85560d" x="913.583807" y="972.381074" style="fill: #ff7f0e; stroke: #ff7f0e"/>
     <use xlink:href="#m5f3d85560d" x="965.947443" y="973.427315" style="fill: #ff7f0e; stroke: #ff7f0e"/>
     <use xlink:href="#m5f3d85560d" x="1018.31108" y="973.428815" style="fill: #ff7f0e; stroke: #ff7f0e"/>
     <use xlink:href="#m5f3d85560d" x="1070.674716" y="973.412539" style="fill: #ff7f0e; stroke: #ff7f0e"/>
     <use xlink:href="#m5f3d85560d" x="1123.038352" y="973.221355" style="fill: #ff7f0e; stroke: #ff7f0e"/>
     <use xlink:href="#m5f3d85560d" x="1175.401989" y="972.064251" style="fill: #ff7f0e; stroke: #ff7f0e"/>
     <use xlink:href="#m5f3d85560d" x="1227.765625" y="973.882096" style="fill: #ff7f0e; stroke: #ff7f0e"/>
     <use xlink:href="#m5f3d85560d" x="1280.129261" y="972.999357" style="fill: #ff7f0e; stroke: #ff7f0e"/>
     <use xlink:href="#m5f3d85560d" x="1332.492898" y="973.976436" style="fill: #ff7f0e; stroke: #ff7f0e"/>
     <use xlink:href="#m5f3d85560d" x="1384.856534" y="972.450043" style="fill: #ff7f0e; stroke: #ff7f0e"/>
     <use xlink:href="#m5f3d85560d" x="1437.22017" y="973.386084" style="fill: #ff7f0e; stroke: #ff7f0e"/>
     <use xlink:href="#m5f3d85560d" x="1489.583807" y="973.741698" style="fill: #ff7f0e; stroke: #ff7f0e"/>
     <use xlink:href="#m5f3d85560d" x="1541.947443" y="973.58294" style="fill: #ff7f0e; stroke: #ff7f0e"/>
     <use xlink:href="#m5f3d85560d" x="1594.31108" y="972.838744" style="fill: #ff7f0e; stroke: #ff7f0e"/>
     <use xlink:href="#m5f3d85560d" x="1646.674716" y="972.439091" style="fill: #ff7f0e; stroke: #ff7f0e"/>
     <use xlink:href="#m5f3d85560d" x="1699.038352" y="973.950445" style="fill: #ff7f0e; stroke: #ff7f0e"/>
     <use xlink:href="#m5f3d85560d" x="1751.401989" y="973.693645" style="fill: #ff7f0e; stroke: #ff7f0e"/>
    </g>
   </g>
   <g id="line2d_42">
    <path d="M 128.129261 948.055989 
L 180.492898 961.646302 
L 232.856534 966.028707 
L 285.22017 968.315327 
L 337.583807 969.124377 
L 389.947443 970.102498 
L 442.31108 970.455604 
L 494.674716 970.958553 
L 547.038352 971.173002 
L 599.401989 971.574568 
L 651.765625 971.03275 
L 704.129261 970.464331 
L 756.492898 971.636307 
L 808.856534 971.796296 
L 861.22017 970.758545 
L 913.583807 971.258253 
L 965.947443 970.319799 
L 1018.31108 972.390142 
L 1070.674716 971.80783 
L 1123.038352 972.41397 
L 1175.401989 971.929184 
L 1227.765625 971.269674 
L 1280.129261 970.082209 
L 1332.492898 970.154734 
L 1384.856534 972.377899 
L 1437.22017 972.594601 
L 1489.583807 972.158791 
L 1541.947443 971.379121 
L 1594.31108 971.088948 
L 1646.674716 971.929895 
L 1699.038352 972.075862 
L 1751.401989 972.535862 
" clip-path="url(#pa638393af2)" style="fill: none; stroke: #2ca02c; stroke-width: 1.5; stroke-linecap: square"/>
    <defs>
     <path id="m694db4782c" d="M 0 3 
C 0.795609 3 1.55874 2.683901 2.12132 2.12132 
C 2.683901 1.55874 3 0.795609 3 0 
C 3 -0.795609 2.683901 -1.55874 2.12132 -2.12132 
C 1.55874 -2.683901 0.795609 -3 0 -3 
C -0.795609 -3 -1.55874 -2.683901 -2.12132 -2.12132 
C -2.683901 -1.55874 -3 -0.795609 -3 0 
C -3 0.795609 -2.683901 1.55874 -2.12132 2.12132 
C -1.55874 2.683901 -0.795609 3 0 3 
z
" style="stroke: #2ca02c"/>
    </defs>
    <g clip-path="url(#pa638393af2)">
     <use xlink:href="#m694db4782c" x="128.129261" y="948.055989" style="fill: #2ca02c; stroke: #2ca02c"/>
     <use xlink:href="#m694db4782c" x="180.492898" y="961.646302" style="fill: #2ca02c; stroke: #2ca02c"/>
     <use xlink:href="#m694db4782c" x="232.856534" y="966.028707" style="fill: #2ca02c; stroke: #2ca02c"/>
     <use xlink:href="#m694db4782c" x="285.22017" y="968.315327" style="fill: #2ca02c; stroke: #2ca02c"/>
     <use xlink:href="#m694db4782c" x="337.583807" y="969.124377" style="fill: #2ca02c; stroke: #2ca02c"/>
     <use xlink:href="#m694db4782c" x="389.947443" y="970.102498" style="fill: #2ca02c; stroke: #2ca02c"/>
     <use xlink:href="#m694db4782c" x="442.31108" y="970.455604" style="fill: #2ca02c; stroke: #2ca02c"/>
     <use xlink:href="#m694db4782c" x="494.674716" y="970.958553" style="fill: #2ca02c; stroke: #2ca02c"/>
     <use xlink:href="#m694db4782c" x="547.038352" y="971.173002" style="fill: #2ca02c; stroke: #2ca02c"/>
     <use xlink:href="#m694db4782c" x="599.401989" y="971.574568" style="fill: #2ca02c; stroke: #2ca02c"/>
     <use xlink:href="#m694db4782c" x="651.765625" y="971.03275" style="fill: #2ca02c; stroke: #2ca02c"/>
     <use xlink:href="#m694db4782c" x="704.129261" y="970.464331" style="fill: #2ca02c; stroke: #2ca02c"/>
     <use xlink:href="#m694db4782c" x="756.492898" y="971.636307" style="fill: #2ca02c; stroke: #2ca02c"/>
     <use xlink:href="#m694db4782c" x="808.856534" y="971.796296" style="fill: #2ca02c; stroke: #2ca02c"/>
     <use xlink:href="#m694db4782c" x="861.22017" y="970.758545" style="fill: #2ca02c; stroke: #2ca02c"/>
     <use xlink:href="#m694db4782c" x="913.583807" y="971.258253" style="fill: #2ca02c; stroke: #2ca02c"/>
     <use xlink:href="#m694db4782c" x="965.947443" y="970.319799" style="fill: #2ca02c; stroke: #2ca02c"/>
     <use xlink:href="#m694db4782c" x="1018.31108" y="972.390142" style="fill: #2ca02c; stroke: #2ca02c"/>
     <use xlink:href="#m694db4782c" x="1070.674716" y="971.80783" style="fill: #2ca02c; stroke: #2ca02c"/>
     <use xlink:href="#m694db4782c" x="1123.038352" y="972.41397" style="fill: #2ca02c; stroke: #2ca02c"/>
     <use xlink:href="#m694db4782c" x="1175.401989" y="971.929184" style="fill: #2ca02c; stroke: #2ca02c"/>
     <use xlink:href="#m694db4782c" x="1227.765625" y="971.269674" style="fill: #2ca02c; stroke: #2ca02c"/>
     <use xlink:href="#m694db4782c" x="1280.129261" y="970.082209" style="fill: #2ca02c; stroke: #2ca02c"/>
     <use xlink:href="#m694db4782c" x="1332.492898" y="970.154734" style="fill: #2ca02c; stroke: #2ca02c"/>
     <use xlink:href="#m694db4782c" x="1384.856534" y="972.377899" style="fill: #2ca02c; stroke: #2ca02c"/>
     <use xlink:href="#m694db4782c" x="1437.22017" y="972.594601" style="fill: #2ca02c; stroke: #2ca02c"/>
     <use xlink:href="#m694db4782c" x="1489.583807" y="972.158791" style="fill: #2ca02c; stroke: #2ca02c"/>
     <use xlink:href="#m694db4782c" x="1541.947443" y="971.379121" style="fill: #2ca02c; stroke: #2ca02c"/>
     <use xlink:href="#m694db4782c" x="1594.31108" y="971.088948" style="fill: #2ca02c; stroke: #2ca02c"/>
     <use xlink:href="#m694db4782c" x="1646.674716" y="971.929895" style="fill: #2ca02c; stroke: #2ca02c"/>
     <use xlink:href="#m694db4782c" x="1699.038352" y="972.075862" style="fill: #2ca02c; stroke: #2ca02c"/>
     <use xlink:href="#m694db4782c" x="1751.401989" y="972.535862" style="fill: #2ca02c; stroke: #2ca02c"/>
    </g>
   </g>
   <g id="line2d_43">
    <path d="M 128.129261 67.678125 
L 180.492898 520.156868 
L 232.856534 669.553436 
L 285.22017 744.352386 
L 337.583807 789.976572 
L 389.947443 818.348276 
L 442.31108 839.422701 
L 494.674716 860.524885 
L 547.038352 867.289085 
L 599.401989 881.760108 
L 651.765625 873.240048 
L 704.129261 875.919514 
L 756.492898 885.602773 
L 808.856534 887.661457 
L 861.22017 889.545759 
L 913.583807 893.315355 
L 965.947443 898.78935 
L 1018.31108 902.426336 
L 1070.674716 903.45711 
L 1123.038352 905.29001 
L 1175.401989 905.551297 
L 1227.765625 908.535307 
L 1280.129261 911.978313 
L 1332.492898 911.64586 
L 1384.856534 907.928903 
L 1437.22017 912.13498 
L 1489.583807 912.020806 
L 1541.947443 911.058118 
L 1594.31108 909.885562 
L 1646.674716 911.523618 
L 1699.038352 909.238948 
L 1751.401989 912.640772 
" clip-path="url(#pa638393af2)" style="fill: none; stroke: #d62728; stroke-width: 1.5; stroke-linecap: square"/>
    <defs>
     <path id="mea52023741" d="M 0 3 
C 0.795609 3 1.55874 2.683901 2.12132 2.12132 
C 2.683901 1.55874 3 0.795609 3 0 
C 3 -0.795609 2.683901 -1.55874 2.12132 -2.12132 
C 1.55874 -2.683901 0.795609 -3 0 -3 
C -0.795609 -3 -1.55874 -2.683901 -2.12132 -2.12132 
C -2.683901 -1.55874 -3 -0.795609 -3 0 
C -3 0.795609 -2.683901 1.55874 -2.12132 2.12132 
C -1.55874 2.683901 -0.795609 3 0 3 
z
" style="stroke: #d62728"/>
    </defs>
    <g clip-path="url(#pa638393af2)">
     <use xlink:href="#mea52023741" x="128.129261" y="67.678125" style="fill: #d62728; stroke: #d62728"/>
     <use xlink:href="#mea52023741" x="180.492898" y="520.156868" style="fill: #d62728; stroke: #d62728"/>
     <use xlink:href="#mea52023741" x="232.856534" y="669.553436" style="fill: #d62728; stroke: #d62728"/>
     <use xlink:href="#mea52023741" x="285.22017" y="744.352386" style="fill: #d62728; stroke: #d62728"/>
     <use xlink:href="#mea52023741" x="337.583807" y="789.976572" style="fill: #d62728; stroke: #d62728"/>
     <use xlink:href="#mea52023741" x="389.947443" y="818.348276" style="fill: #d62728; stroke: #d62728"/>
     <use xlink:href="#mea52023741" x="442.31108" y="839.422701" style="fill: #d62728; stroke: #d62728"/>
     <use xlink:href="#mea52023741" x="494.674716" y="860.524885" style="fill: #d62728; stroke: #d62728"/>
     <use xlink:href="#mea52023741" x="547.038352" y="867.289085" style="fill: #d62728; stroke: #d62728"/>
     <use xlink:href="#mea52023741" x="599.401989" y="881.760108" style="fill: #d62728; stroke: #d62728"/>
     <use xlink:href="#mea52023741" x="651.765625" y="873.240048" style="fill: #d62728; stroke: #d62728"/>
     <use xlink:href="#mea52023741" x="704.129261" y="875.919514" style="fill: #d62728; stroke: #d62728"/>
     <use xlink:href="#mea52023741" x="756.492898" y="885.602773" style="fill: #d62728; stroke: #d62728"/>
     <use xlink:href="#mea52023741" x="808.856534" y="887.661457" style="fill: #d62728; stroke: #d62728"/>
     <use xlink:href="#mea52023741" x="861.22017" y="889.545759" style="fill: #d62728; stroke: #d62728"/>
     <use xlink:href="#mea52023741" x="913.583807" y="893.315355" style="fill: #d62728; stroke: #d62728"/>
     <use xlink:href="#mea52023741" x="965.947443" y="898.78935" style="fill: #d62728; stroke: #d62728"/>
     <use xlink:href="#mea52023741" x="1018.31108" y="902.426336" style="fill: #d62728; stroke: #d62728"/>
     <use xlink:href="#mea52023741" x="1070.674716" y="903.45711" style="fill: #d62728; stroke: #d62728"/>
     <use xlink:href="#mea52023741" x="1123.038352" y="905.29001" style="fill: #d62728; stroke: #d62728"/>
     <use xlink:href="#mea52023741" x="1175.401989" y="905.551297" style="fill: #d62728; stroke: #d62728"/>
     <use xlink:href="#mea52023741" x="1227.765625" y="908.535307" style="fill: #d62728; stroke: #d62728"/>
     <use xlink:href="#mea52023741" x="1280.129261" y="911.978313" style="fill: #d62728; stroke: #d62728"/>
     <use xlink:href="#mea52023741" x="1332.492898" y="911.64586" style="fill: #d62728; stroke: #d62728"/>
     <use xlink:href="#mea52023741" x="1384.856534" y="907.928903" style="fill: #d62728; stroke: #d62728"/>
     <use xlink:href="#mea52023741" x="1437.22017" y="912.13498" style="fill: #d62728; stroke: #d62728"/>
     <use xlink:href="#mea52023741" x="1489.583807" y="912.020806" style="fill: #d62728; stroke: #d62728"/>
     <use xlink:href="#mea52023741" x="1541.947443" y="911.058118" style="fill: #d62728; stroke: #d62728"/>
     <use xlink:href="#mea52023741" x="1594.31108" y="909.885562" style="fill: #d62728; stroke: #d62728"/>
     <use xlink:href="#mea52023741" x="1646.674716" y="911.523618" style="fill: #d62728; stroke: #d62728"/>
     <use xlink:href="#mea52023741" x="1699.038352" y="909.238948" style="fill: #d62728; stroke: #d62728"/>
     <use xlink:href="#mea52023741" x="1751.401989" y="912.640772" style="fill: #d62728; stroke: #d62728"/>
    </g>
   </g>
   <g id="patch_3">
    <path d="M 46.965625 1020.238125 
L 46.965625 22.318125 
" style="fill: none; stroke: #000000; stroke-width: 0.8; stroke-linejoin: miter; stroke-linecap: square"/>
   </g>
   <g id="patch_4">
    <path d="M 1832.565625 1020.238125 
L 1832.565625 22.318125 
" style="fill: none; stroke: #000000; stroke-width: 0.8; stroke-linejoin: miter; stroke-linecap: square"/>
   </g>
   <g id="patch_5">
    <path d="M 46.965625 1020.238125 
L 1832.565625 1020.238125 
" style="fill: none; stroke: #000000; stroke-width: 0.8; stroke-linejoin: miter; stroke-linecap: square"/>
   </g>
   <g id="patch_6">
    <path d="M 46.965625 22.318125 
L 1832.565625 22.318125 
" style="fill: none; stroke: #000000; stroke-width: 0.8; stroke-linejoin: miter; stroke-linecap: square"/>
   </g>
   <g id="text_42">
    <!-- time execution -->
    <g transform="translate(895.066563 16.318125)scale(0.12 -0.12)">
     <defs>
      <path id="DejaVuSans-69" d="M 603 3500 
L 1178 3500 
L 1178 0 
L 603 0 
L 603 3500 
z
M 603 4863 
L 1178 4863 
L 1178 4134 
L 603 4134 
L 603 4863 
z
" transform="scale(0.015625)"/>
      <path id="DejaVuSans-6d" d="M 3328 2828 
Q 3544 3216 3844 3400 
Q 4144 3584 4550 3584 
Q 5097 3584 5394 3201 
Q 5691 2819 5691 2113 
L 5691 0 
L 5113 0 
L 5113 2094 
Q 5113 2597 4934 2840 
Q 4756 3084 4391 3084 
Q 3944 3084 3684 2787 
Q 3425 2491 3425 1978 
L 3425 0 
L 2847 0 
L 2847 2094 
Q 2847 2600 2669 2842 
Q 2491 3084 2119 3084 
Q 1678 3084 1418 2786 
Q 1159 2488 1159 1978 
L 1159 0 
L 581 0 
L 581 3500 
L 1159 3500 
L 1159 2956 
Q 1356 3278 1631 3431 
Q 1906 3584 2284 3584 
Q 2666 3584 2933 3390 
Q 3200 3197 3328 2828 
z
" transform="scale(0.015625)"/>
      <path id="DejaVuSans-20" transform="scale(0.015625)"/>
      <path id="DejaVuSans-78" d="M 3513 3500 
L 2247 1797 
L 3578 0 
L 2900 0 
L 1881 1375 
L 863 0 
L 184 0 
L 1544 1831 
L 300 3500 
L 978 3500 
L 1906 2253 
L 2834 3500 
L 3513 3500 
z
" transform="scale(0.015625)"/>
      <path id="DejaVuSans-75" d="M 544 1381 
L 544 3500 
L 1119 3500 
L 1119 1403 
Q 1119 906 1312 657 
Q 1506 409 1894 409 
Q 2359 409 2629 706 
Q 2900 1003 2900 1516 
L 2900 3500 
L 3475 3500 
L 3475 0 
L 2900 0 
L 2900 538 
Q 2691 219 2414 64 
Q 2138 -91 1772 -91 
Q 1169 -91 856 284 
Q 544 659 544 1381 
z
M 1991 3584 
L 1991 3584 
z
" transform="scale(0.015625)"/>
     </defs>
     <use xlink:href="#DejaVuSans-74"/>
     <use xlink:href="#DejaVuSans-69" x="39.208984"/>
     <use xlink:href="#DejaVuSans-6d" x="66.992188"/>
     <use xlink:href="#DejaVuSans-65" x="164.404297"/>
     <use xlink:href="#DejaVuSans-20" x="225.927734"/>
     <use xlink:href="#DejaVuSans-65" x="257.714844"/>
     <use xlink:href="#DejaVuSans-78" x="317.488281"/>
     <use xlink:href="#DejaVuSans-65" x="373.542969"/>
     <use xlink:href="#DejaVuSans-63" x="435.066406"/>
     <use xlink:href="#DejaVuSans-75" x="490.046875"/>
     <use xlink:href="#DejaVuSans-74" x="553.425781"/>
     <use xlink:href="#DejaVuSans-69" x="592.634766"/>
     <use xlink:href="#DejaVuSans-6f" x="620.417969"/>
     <use xlink:href="#DejaVuSans-6e" x="681.599609"/>
    </g>
   </g>
   <g id="legend_1">
    <g id="patch_7">
     <path d="M 1734.739063 89.030625 
L 1825.565625 89.030625 
Q 1827.565625 89.030625 1827.565625 87.030625 
L 1827.565625 29.318125 
Q 1827.565625 27.318125 1825.565625 27.318125 
L 1734.739063 27.318125 
Q 1732.739063 27.318125 1732.739063 29.318125 
L 1732.739063 87.030625 
Q 1732.739063 89.030625 1734.739063 89.030625 
z
" style="fill: #ffffff; opacity: 0.8; stroke: #cccccc; stroke-linejoin: miter"/>
    </g>
    <g id="line2d_44">
     <path d="M 1736.739063 35.416562 
L 1746.739063 35.416562 
L 1756.739063 35.416562 
" style="fill: none; stroke: #1f77b4; stroke-width: 1.5; stroke-linecap: square"/>
     <g>
      <use xlink:href="#m38e9c4af7b" x="1746.739063" y="35.416562" style="fill: #1f77b4; stroke: #1f77b4"/>
     </g>
    </g>
    <g id="text_43">
     <!-- simsmall -->
     <g transform="translate(1764.739063 38.916562)scale(0.1 -0.1)">
      <defs>
       <path id="DejaVuSans-6c" d="M 603 4863 
L 1178 4863 
L 1178 0 
L 603 0 
L 603 4863 
z
" transform="scale(0.015625)"/>
      </defs>
      <use xlink:href="#DejaVuSans-73"/>
      <use xlink:href="#DejaVuSans-69" x="52.099609"/>
      <use xlink:href="#DejaVuSans-6d" x="79.882812"/>
      <use xlink:href="#DejaVuSans-73" x="177.294922"/>
      <use xlink:href="#DejaVuSans-6d" x="229.394531"/>
      <use xlink:href="#DejaVuSans-61" x="326.806641"/>
      <use xlink:href="#DejaVuSans-6c" x="388.085938"/>
      <use xlink:href="#DejaVuSans-6c" x="415.869141"/>
     </g>
    </g>
    <g id="line2d_45">
     <path d="M 1736.739063 50.094687 
L 1746.739063 50.094687 
L 1756.739063 50.094687 
" style="fill: none; stroke: #ff7f0e; stroke-width: 1.5; stroke-linecap: square"/>
     <g>
      <use xlink:href="#m5f3d85560d" x="1746.739063" y="50.094687" style="fill: #ff7f0e; stroke: #ff7f0e"/>
     </g>
    </g>
    <g id="text_44">
     <!-- simmedium -->
     <g transform="translate(1764.739063 53.594687)scale(0.1 -0.1)">
      <use xlink:href="#DejaVuSans-73"/>
      <use xlink:href="#DejaVuSans-69" x="52.099609"/>
      <use xlink:href="#DejaVuSans-6d" x="79.882812"/>
      <use xlink:href="#DejaVuSans-6d" x="177.294922"/>
      <use xlink:href="#DejaVuSans-65" x="274.707031"/>
      <use xlink:href="#DejaVuSans-64" x="336.230469"/>
      <use xlink:href="#DejaVuSans-69" x="399.707031"/>
      <use xlink:href="#DejaVuSans-75" x="427.490234"/>
      <use xlink:href="#DejaVuSans-6d" x="490.869141"/>
     </g>
    </g>
    <g id="line2d_46">
     <path d="M 1736.739063 64.772812 
L 1746.739063 64.772812 
L 1756.739063 64.772812 
" style="fill: none; stroke: #2ca02c; stroke-width: 1.5; stroke-linecap: square"/>
     <g>
      <use xlink:href="#m694db4782c" x="1746.739063" y="64.772812" style="fill: #2ca02c; stroke: #2ca02c"/>
     </g>
    </g>
    <g id="text_45">
     <!-- simlarge -->
     <g transform="translate(1764.739063 68.272812)scale(0.1 -0.1)">
      <defs>
       <path id="DejaVuSans-67" d="M 2906 1791 
Q 2906 2416 2648 2759 
Q 2391 3103 1925 3103 
Q 1463 3103 1205 2759 
Q 947 2416 947 1791 
Q 947 1169 1205 825 
Q 1463 481 1925 481 
Q 2391 481 2648 825 
Q 2906 1169 2906 1791 
z
M 3481 434 
Q 3481 -459 3084 -895 
Q 2688 -1331 1869 -1331 
Q 1566 -1331 1297 -1286 
Q 1028 -1241 775 -1147 
L 775 -588 
Q 1028 -725 1275 -790 
Q 1522 -856 1778 -856 
Q 2344 -856 2625 -561 
Q 2906 -266 2906 331 
L 2906 616 
Q 2728 306 2450 153 
Q 2172 0 1784 0 
Q 1141 0 747 490 
Q 353 981 353 1791 
Q 353 2603 747 3093 
Q 1141 3584 1784 3584 
Q 2172 3584 2450 3431 
Q 2728 3278 2906 2969 
L 2906 3500 
L 3481 3500 
L 3481 434 
z
" transform="scale(0.015625)"/>
      </defs>
      <use xlink:href="#DejaVuSans-73"/>
      <use xlink:href="#DejaVuSans-69" x="52.099609"/>
      <use xlink:href="#DejaVuSans-6d" x="79.882812"/>
      <use xlink:href="#DejaVuSans-6c" x="177.294922"/>
      <use xlink:href="#DejaVuSans-61" x="205.078125"/>
      <use xlink:href="#DejaVuSans-72" x="266.357422"/>
      <use xlink:href="#DejaVuSans-67" x="305.720703"/>
      <use xlink:href="#DejaVuSans-65" x="369.197266"/>
     </g>
    </g>
    <g id="line2d_47">
     <path d="M 1736.739063 79.450937 
L 1746.739063 79.450937 
L 1756.739063 79.450937 
" style="fill: none; stroke: #d62728; stroke-width: 1.5; stroke-linecap: square"/>
     <g>
      <use xlink:href="#mea52023741" x="1746.739063" y="79.450937" style="fill: #d62728; stroke: #d62728"/>
     </g>
    </g>
    <g id="text_46">
     <!-- native -->
     <g transform="translate(1764.739063 82.950937)scale(0.1 -0.1)">
      <defs>
       <path id="DejaVuSans-76" d="M 191 3500 
L 800 3500 
L 1894 563 
L 2988 3500 
L 3597 3500 
L 2284 0 
L 1503 0 
L 191 3500 
z
" transform="scale(0.015625)"/>
      </defs>
      <use xlink:href="#DejaVuSans-6e"/>
      <use xlink:href="#DejaVuSans-61" x="63.378906"/>
      <use xlink:href="#DejaVuSans-74" x="124.658203"/>
      <use xlink:href="#DejaVuSans-69" x="163.867188"/>
      <use xlink:href="#DejaVuSans-76" x="191.650391"/>
      <use xlink:href="#DejaVuSans-65" x="250.830078"/>
     </g>
    </g>
   </g>
  </g>
 </g>
 <defs>
  <clipPath id="pa638393af2">
   <rect x="46.965625" y="22.318125" width="1785.6" height="997.92"/>
  </clipPath>
 </defs>
</svg>
